<?xml version="1.0" encoding="UTF-8"?>
<!DOCTYPE svg PUBLIC "-//W3C//DTD SVG 1.1//EN" "http://www.w3.org/Graphics/SVG/1.1/DTD/svg11.dtd">
<svg xmlns="http://www.w3.org/2000/svg" version="1.1" width="6912px" height="3456px" style="shape-rendering:geometricPrecision; text-rendering:geometricPrecision; image-rendering:optimizeQuality; fill-rule:evenodd; clip-rule:evenodd" xmlns:xlink="http://www.w3.org/1999/xlink">
<g><path style="opacity:1" fill="#ffb067" d="M 4341.5,437.5 C 4332.84,449.471 4324.18,461.471 4315.5,473.5C 4282.36,450.024 4248.69,427.358 4214.5,405.5C 4203.99,399.08 4193.66,392.413 4183.5,385.5C 4192.43,371.963 4201.6,358.63 4211,345.5C 4257.48,371.645 4301.98,400.645 4344.5,432.5C 4343.24,434.029 4342.24,435.695 4341.5,437.5 Z"/></g>
<g><path style="opacity:1" fill="#ffb068" d="M 5069.5,402.5 C 5086.96,413.74 5103.96,425.74 5120.5,438.5C 5114.81,445.186 5109.14,451.853 5103.5,458.5C 5101.33,460.837 5099.33,463.337 5097.5,466C 5071.06,446.08 5043.39,427.58 5014.5,410.5C 5022.16,401.507 5030.16,392.84 5038.5,384.5C 5048.87,390.555 5059.2,396.555 5069.5,402.5 Z"/></g>
<g><path style="opacity:1" fill="#ffdfc2" d="M 5103.5,458.5 C 5109.14,451.853 5114.81,445.186 5120.5,438.5C 5103.96,425.74 5086.96,413.74 5069.5,402.5C 5070.93,400.673 5072.6,399.006 5074.5,397.5C 5102.86,414.009 5130.19,432.009 5156.5,451.5C 5148.85,460.98 5141.02,470.313 5133,479.5C 5123.55,471.867 5113.71,464.867 5103.5,458.5 Z"/></g>
<g><path style="opacity:1" fill="#ffdfc1" d="M 4214.5,405.5 C 4248.69,427.358 4282.36,450.024 4315.5,473.5C 4324.18,461.471 4332.84,449.471 4341.5,437.5C 4350.59,444.224 4359.93,450.724 4369.5,457C 4370.57,457.739 4371.24,458.739 4371.5,460C 4362.13,473.903 4352.63,487.737 4343,501.5C 4299.95,470.388 4255.79,440.888 4210.5,413C 4212.49,410.842 4213.83,408.342 4214.5,405.5 Z"/></g>
<g><path style="opacity:1" fill="#ffb068" d="M 5017.5,454.5 C 5034.61,466.232 5051.61,478.232 5068.5,490.5C 5062.81,497.186 5057.14,503.853 5051.5,510.5C 5049.33,512.837 5047.33,515.337 5045.5,518C 5019.23,497.998 4991.9,479.165 4963.5,461.5C 4970.83,452.507 4978.83,444.174 4987.5,436.5C 4997.76,442.092 5007.76,448.092 5017.5,454.5 Z"/></g>
<g><path style="opacity:1" fill="#ffdfc2" d="M 5051.5,510.5 C 5057.14,503.853 5062.81,497.186 5068.5,490.5C 5051.61,478.232 5034.61,466.232 5017.5,454.5C 5019.3,453.207 5020.96,451.707 5022.5,450C 5023.5,449.333 5024.5,449.333 5025.5,450C 5052.7,466.764 5079.03,484.764 5104.5,504C 5096.67,513.167 5088.83,522.333 5081,531.5C 5071.55,523.867 5061.71,516.867 5051.5,510.5 Z"/></g>
<g><path style="opacity:1" fill="#ffb067" d="M 4249.5,574.5 C 4241.18,586.471 4232.84,598.471 4224.5,610.5C 4191.49,586.995 4157.49,564.995 4122.5,544.5C 4111.9,538.193 4101.23,531.86 4090.5,525.5C 4099.18,511.459 4108.35,497.792 4118,484.5C 4164.74,509.939 4209.91,537.772 4253.5,568C 4251.77,569.972 4250.43,572.139 4249.5,574.5 Z"/></g>
<g><path style="opacity:1" fill="#ffb067" d="M 4580.5,524.5 C 4583.61,529.221 4586.61,534.055 4589.5,539C 4548.65,599.858 4499.32,653.192 4441.5,699C 4412.21,721.953 4381.54,742.953 4349.5,762C 4287.84,794.716 4223.17,819.216 4155.5,835.5C 4152.15,836.553 4148.82,836.553 4145.5,835.5C 4136.5,819.5 4127.5,803.5 4118.5,787.5C 4172.99,776.505 4225.99,760.339 4277.5,739C 4380.93,690.7 4466.43,620.533 4534,528.5C 4542.54,515.921 4550.71,503.087 4558.5,490C 4559.45,489.383 4560.28,489.549 4561,490.5C 4567.73,501.722 4574.23,513.055 4580.5,524.5 Z"/></g>
<g><path style="opacity:1" fill="#ffdec1" d="M 4155.5,835.5 C 4223.17,819.216 4287.84,794.716 4349.5,762C 4381.54,742.953 4412.21,721.953 4441.5,699C 4499.32,653.192 4548.65,599.858 4589.5,539C 4586.61,534.055 4583.61,529.221 4580.5,524.5C 4582.89,522.087 4585.05,519.42 4587,516.5C 4597.5,533.194 4607.17,550.194 4616,567.5C 4542.29,674.889 4446.79,756.722 4329.5,813C 4279.6,834.968 4228.1,852.135 4175,864.5C 4174.23,864.355 4173.56,864.022 4173,863.5C 4168.25,854.339 4163.25,845.339 4158,836.5C 4157.33,835.748 4156.5,835.414 4155.5,835.5 Z"/></g>
<g><path style="opacity:1" fill="#ffb067" d="M 5068.5,553.5 C 5072.6,557.102 5076.6,560.935 5080.5,565C 5043.26,606.576 5004.26,646.576 4963.5,685C 4923.88,721.451 4883.54,756.951 4842.5,791.5C 4863.41,836.319 4884.58,880.985 4906,925.5C 4916.24,939.454 4929.74,944.12 4946.5,939.5C 4950.96,939.402 4955.3,938.569 4959.5,937C 5000.44,923.03 5040.11,906.03 5078.5,886C 5118.31,865.938 5156.64,843.605 5193.5,819C 5201.67,812.833 5209.83,806.667 5218,800.5C 5222.51,810.193 5227.01,819.86 5231.5,829.5C 5235.09,836.352 5238.43,843.352 5241.5,850.5C 5226.92,860.558 5211.92,870.058 5196.5,879C 5132.17,915.666 5065.83,948.333 4997.5,977C 4979.95,983.961 4961.95,989.294 4943.5,993C 4936.2,994.036 4928.87,994.536 4921.5,994.5C 4897.03,992.857 4878.53,981.524 4866,960.5C 4814.45,851.407 4763.45,742.074 4713,632.5C 4707.09,620.345 4700.43,608.678 4693,597.5C 4692.25,596.365 4692.42,595.365 4693.5,594.5C 4710.17,586.833 4726.83,579.167 4743.5,571.5C 4746.7,579.771 4749.7,588.104 4752.5,596.5C 4775.05,645.927 4797.88,695.26 4821,744.5C 4828.52,738.839 4835.68,732.839 4842.5,726.5C 4901.17,679.681 4956,628.348 5007,572.5C 5018.6,558.903 5029.43,544.736 5039.5,530C 5040.17,529.333 5040.83,529.333 5041.5,530C 5050.08,538.416 5059.08,546.249 5068.5,553.5 Z"/></g>
<g><path style="opacity:1" fill="#ffdec1" d="M 4946.5,939.5 C 4929.74,944.12 4916.24,939.454 4906,925.5C 4884.58,880.985 4863.41,836.319 4842.5,791.5C 4883.54,756.951 4923.88,721.451 4963.5,685C 5004.26,646.576 5043.26,606.576 5080.5,565C 5076.6,560.935 5072.6,557.102 5068.5,553.5C 5070.81,550.185 5073.14,546.851 5075.5,543.5C 5076,542.479 5076.67,542.312 5077.5,543C 5090.5,554.667 5103.5,566.333 5116.5,578C 5070.53,630.301 5021.53,679.635 4969.5,726C 4939.3,752.038 4909.3,778.205 4879.5,804.5C 4899.44,849.706 4920.44,894.373 4942.5,938.5C 4943.69,939.429 4945.02,939.762 4946.5,939.5 Z"/></g>
<g><path style="opacity:1" fill="#ffdfc1" d="M 4122.5,544.5 C 4157.49,564.995 4191.49,586.995 4224.5,610.5C 4232.84,598.471 4241.18,586.471 4249.5,574.5C 4260.12,580.816 4270.45,587.649 4280.5,595C 4271.36,609.455 4261.86,623.622 4252,637.5C 4208.78,606.976 4163.94,578.809 4117.5,553C 4119.57,550.358 4121.23,547.525 4122.5,544.5 Z"/></g>
<g><path style="opacity:1" fill="#ffdec1" d="M 4842.5,726.5 C 4835.68,732.839 4828.52,738.839 4821,744.5C 4797.88,695.26 4775.05,645.927 4752.5,596.5C 4761.8,593.285 4770.8,589.285 4779.5,584.5C 4785.03,599.252 4790.86,613.919 4797,628.5C 4812.45,661.068 4827.62,693.735 4842.5,726.5 Z"/></g>
<g><path style="opacity:1" fill="#ff7854" d="M 2854.5,716.5 C 2865.88,746.133 2876.38,776.133 2886,806.5C 2910.23,885.747 2935.23,964.747 2961,1043.5C 2961.52,1044.52 2962.35,1045.18 2963.5,1045.5C 2967.2,1044.43 2970.86,1043.27 2974.5,1042C 2981.73,1036.89 2989.06,1032.06 2996.5,1027.5C 3023.09,1011.36 3051.76,1000.86 3082.5,996C 3126.56,991.136 3165.23,1003.14 3198.5,1032C 3207.37,1039.37 3215.37,1047.54 3222.5,1056.5C 3249.62,1091.37 3271.12,1129.71 3287,1171.5C 3301.08,1207.75 3312.75,1244.75 3322,1282.5C 3326.32,1320.25 3320.32,1356.25 3304,1390.5C 3296.35,1408.31 3285.85,1424.14 3272.5,1438C 3261.47,1447.01 3248.8,1451.85 3234.5,1452.5C 3215.73,1451.7 3200.9,1443.7 3190,1428.5C 3177.89,1408.17 3168.89,1386.51 3163,1363.5C 3150.76,1316.73 3139.6,1269.73 3129.5,1222.5C 3126.65,1211.75 3123.48,1201.09 3120,1190.5C 3112.25,1176.01 3104.25,1161.67 3096,1147.5C 3040.52,1206.58 3015.52,1276.92 3021,1358.5C 3018.27,1393.58 3012.94,1428.25 3005,1462.5C 2993.09,1495.72 2969.59,1514.55 2934.5,1519C 2922.71,1520.05 2911.04,1519.55 2899.5,1517.5C 2871.12,1510.29 2851.62,1492.96 2841,1465.5C 2821.77,1415.16 2805.77,1363.82 2793,1311.5C 2761.88,1148.1 2734.21,984.101 2710,819.5C 2709.24,794.101 2710.24,768.768 2713,743.5C 2716.76,718.121 2728.59,697.621 2748.5,682C 2771.86,667.729 2795.86,666.729 2820.5,679C 2835.15,688.461 2846.49,700.961 2854.5,716.5 Z"/></g>
<g><path style="opacity:1" fill="#ffc9bb" d="M 2854.5,716.5 C 2883.54,724.363 2903.71,742.363 2915,770.5C 2943.89,855.659 2971.05,941.325 2996.5,1027.5C 2989.06,1032.06 2981.73,1036.89 2974.5,1042C 2970.86,1043.27 2967.2,1044.43 2963.5,1045.5C 2962.35,1045.18 2961.52,1044.52 2961,1043.5C 2935.23,964.747 2910.23,885.747 2886,806.5C 2876.38,776.133 2865.88,746.133 2854.5,716.5 Z"/></g>
<g><path style="opacity:1" fill="#ff7854" d="M 3517.5,789.5 C 3525.96,823.128 3517.3,851.628 3491.5,875C 3476.98,885.785 3460.64,890.618 3442.5,889.5C 3406.5,882 3385.67,860 3380,823.5C 3378.01,788.302 3392.84,763.135 3424.5,748C 3450.39,738.115 3474.39,741.449 3496.5,758C 3506.14,766.785 3513.14,777.285 3517.5,789.5 Z"/></g>
<g><path style="opacity:1" fill="#ffc9bb" d="M 3517.5,789.5 C 3549.99,794.484 3569.82,813.151 3577,845.5C 3580.66,881.668 3567.16,909.168 3536.5,928C 3502.62,942.238 3474.12,935.071 3451,906.5C 3447.1,901.358 3444.26,895.691 3442.5,889.5C 3460.64,890.618 3476.98,885.785 3491.5,875C 3517.3,851.628 3525.96,823.128 3517.5,789.5 Z"/></g>
<g><path style="opacity:1" fill="#ffdec1" d="M 4921.5,994.5 C 4928.87,994.536 4936.2,994.036 4943.5,993C 4961.95,989.294 4979.95,983.961 4997.5,977C 5065.83,948.333 5132.17,915.666 5196.5,879C 5211.92,870.058 5226.92,860.558 5241.5,850.5C 5238.43,843.352 5235.09,836.352 5231.5,829.5C 5239.63,825.227 5247.13,819.894 5254,813.5C 5262.23,830.122 5270.06,846.956 5277.5,864C 5266.54,871.821 5255.2,879.154 5243.5,886C 5176.18,925.158 5106.52,959.825 5034.5,990C 5015.39,997.704 4995.72,1003.37 4975.5,1007C 4962.62,1008.35 4949.95,1007.35 4937.5,1004C 4931.61,1001.56 4926.27,998.396 4921.5,994.5 Z"/></g>
<g><path style="opacity:1" fill="#ffb067" d="M 5408.5,859.5 C 5419.5,860.205 5430.5,861.039 5441.5,862C 5540.17,862.667 5638.83,862.667 5737.5,862C 5748.12,860.553 5758.79,859.72 5769.5,859.5C 5769.5,869.167 5769.5,878.833 5769.5,888.5C 5769.5,895.833 5769.5,903.167 5769.5,910.5C 5764.84,910.038 5760.17,909.538 5755.5,909C 5642.33,908.167 5529.33,908.334 5416.5,909.5C 5413.83,909.5 5411.17,909.5 5408.5,909.5C 5407.17,901.528 5406.5,893.194 5406.5,884.5C 5406.5,875.806 5407.17,867.472 5408.5,859.5 Z"/></g>
<g><path style="opacity:1" fill="#ffc896" d="M 5408.5,859.5 C 5407.17,867.472 5406.5,875.806 5406.5,884.5C 5406.5,893.194 5407.17,901.528 5408.5,909.5C 5407.79,910.404 5406.79,910.737 5405.5,910.5C 5405.5,893.167 5405.5,875.833 5405.5,858.5C 5406.79,858.263 5407.79,858.596 5408.5,859.5 Z"/></g>
<g><path style="opacity:1" fill="#ff7854" d="M 1429.5,928.5 C 1438.52,955.24 1445.35,982.573 1450,1010.5C 1483.99,1215.74 1517.32,1421.08 1550,1626.5C 1556.96,1664.65 1558.29,1702.98 1554,1741.5C 1545.13,1774.37 1523.96,1794.2 1490.5,1801C 1480.15,1802.55 1469.82,1802.72 1459.5,1801.5C 1442.49,1797.99 1428.32,1789.66 1417,1776.5C 1391.32,1742.79 1375.82,1704.79 1370.5,1662.5C 1358.36,1590.03 1347.69,1517.36 1338.5,1444.5C 1335.36,1426.99 1333.69,1409.33 1333.5,1391.5C 1201.81,1405.01 1070.15,1418.68 938.5,1432.5C 940.335,1455.19 942.502,1477.86 945,1500.5C 953.666,1575.16 962.333,1649.83 971,1724.5C 974.153,1745.84 974.153,1767.18 971,1788.5C 963.327,1827.9 939.493,1847.9 899.5,1848.5C 872.491,1843.9 853.658,1828.9 843,1803.5C 841.131,1798.23 839.465,1792.89 838,1787.5C 802.621,1584.27 769.954,1380.6 740,1176.5C 736.309,1132.36 737.643,1088.36 744,1044.5C 748.66,1018.54 762.493,999.369 785.5,987C 826.923,975.41 856.256,989.244 873.5,1028.5C 879.598,1049.56 884.765,1070.89 889,1092.5C 899.513,1153.91 910.347,1215.25 921.5,1276.5C 938.012,1275.15 954.346,1273.48 970.5,1271.5C 1085.11,1259.28 1199.78,1247.62 1314.5,1236.5C 1310.28,1157.37 1306.95,1078.21 1304.5,999C 1303.26,973.554 1306.43,948.721 1314,924.5C 1328.13,888.685 1353.96,875.519 1391.5,885C 1412.47,892.145 1425.14,906.645 1429.5,928.5 Z"/></g>
<g><path style="opacity:1" fill="#ffdec1" d="M 5416.5,909.5 C 5529.33,908.334 5642.33,908.167 5755.5,909C 5760.17,909.538 5764.84,910.038 5769.5,910.5C 5769.5,903.167 5769.5,895.833 5769.5,888.5C 5778.53,888.164 5787.53,887.497 5796.5,886.5C 5796.5,903.5 5796.5,920.5 5796.5,937.5C 5783.5,937 5770.5,936.5 5757.5,936C 5657.83,935.333 5558.17,935.333 5458.5,936C 5450.15,936.378 5441.82,936.878 5433.5,937.5C 5433.5,928.167 5433.5,918.833 5433.5,909.5C 5427.83,909.5 5422.17,909.5 5416.5,909.5 Z"/></g>
<g><path style="opacity:1" fill="#ffc9bb" d="M 1429.5,928.5 C 1455.53,928.424 1473.36,940.424 1483,964.5C 1493.51,995.207 1501.51,1026.54 1507,1058.5C 1541.21,1266.09 1574.88,1473.76 1608,1681.5C 1613.48,1712.65 1614.81,1743.99 1612,1775.5C 1606.82,1815.02 1584.65,1838.85 1545.5,1847C 1515.82,1852.44 1491.32,1843.61 1472,1820.5C 1467.61,1814.28 1463.44,1807.95 1459.5,1801.5C 1469.82,1802.72 1480.15,1802.55 1490.5,1801C 1523.96,1794.2 1545.13,1774.37 1554,1741.5C 1558.29,1702.98 1556.96,1664.65 1550,1626.5C 1517.32,1421.08 1483.99,1215.74 1450,1010.5C 1445.35,982.573 1438.52,955.24 1429.5,928.5 Z"/></g>
<g><path style="opacity:1" fill="#ffb067" d="M 6375.5,980.5 C 6332.91,1022.61 6286.41,1059.61 6236,1091.5C 6235.33,1177.5 6235.33,1263.5 6236,1349.5C 6236.37,1353.86 6236.87,1358.2 6237.5,1362.5C 6219.01,1363.5 6200.34,1363.83 6181.5,1363.5C 6182.2,1348.84 6182.87,1334.17 6183.5,1319.5C 6184.83,1253.67 6184.83,1187.67 6183.5,1121.5C 6182.89,1121.62 6182.56,1121.96 6182.5,1122.5C 6123.27,1153.13 6061.93,1178.46 5998.5,1198.5C 5995.81,1199.04 5993.14,1199.7 5990.5,1200.5C 5981.01,1186.2 5972.01,1171.54 5963.5,1156.5C 6059.22,1132.46 6147.89,1092.96 6229.5,1038C 6265.31,1013.21 6298.48,985.043 6329,953.5C 6331.67,950.167 6334.33,946.833 6337,943.5C 6350.03,955.7 6362.87,968.034 6375.5,980.5 Z"/></g>
<g><path style="opacity:1" fill="#ff7854" d="M 2592.5,1040.5 C 2615.83,1076.34 2617.67,1113.34 2598,1151.5C 2587.63,1167.93 2572.8,1174.43 2553.5,1171C 2534.86,1166.01 2516.53,1160.01 2498.5,1153C 2459.53,1142.72 2427.03,1152.89 2401,1183.5C 2396.5,1189.33 2392,1195.17 2387.5,1201C 2403.76,1207.2 2420.09,1213.2 2436.5,1219C 2443.98,1222.24 2451.31,1225.74 2458.5,1229.5C 2499.34,1245.75 2539.34,1263.92 2578.5,1284C 2602.34,1297.68 2623.68,1314.51 2642.5,1334.5C 2666.07,1360.32 2680.57,1390.65 2686,1425.5C 2689.39,1480.03 2670.55,1525.2 2629.5,1561C 2607.08,1579.22 2582.42,1593.89 2555.5,1605C 2525.28,1617.85 2493.94,1626.85 2461.5,1632C 2429.15,1635.33 2397.48,1632 2366.5,1622C 2355.03,1618.12 2343.69,1613.95 2332.5,1609.5C 2284.88,1591.28 2262.05,1556.61 2264,1505.5C 2270.43,1466.4 2292.93,1441.9 2331.5,1432C 2338.18,1430.67 2344.84,1429.33 2351.5,1428C 2378.16,1427.5 2404.83,1427.33 2431.5,1427.5C 2449.17,1427.5 2466.83,1427.5 2484.5,1427.5C 2484.47,1422.14 2484.81,1416.8 2485.5,1411.5C 2460.71,1406.24 2436.04,1400.41 2411.5,1394C 2375.53,1381.79 2339.86,1368.79 2304.5,1355C 2297.47,1351.49 2290.47,1347.99 2283.5,1344.5C 2215.6,1309.36 2187.43,1253.7 2199,1177.5C 2210.06,1126.87 2234.89,1084.37 2273.5,1050C 2319.17,1010.34 2372.17,986.676 2432.5,979C 2474.44,975.368 2514.1,983.034 2551.5,1002C 2568.24,1011.57 2581.9,1024.4 2592.5,1040.5 Z"/></g>
<g><path style="opacity:1" fill="#ffdfc2" d="M 6375.5,980.5 C 6383.83,989.661 6392.66,998.328 6402,1006.5C 6402.67,1007.17 6402.67,1007.83 6402,1008.5C 6360.01,1050.68 6313.84,1087.35 6263.5,1118.5C 6262.33,1202.83 6262.17,1287.16 6263,1371.5C 6263.61,1378.08 6264.44,1384.58 6265.5,1391C 6246.5,1391.5 6227.5,1391.67 6208.5,1391.5C 6209.13,1382.5 6209.79,1373.5 6210.5,1364.5C 6219.86,1364.83 6229.19,1364.5 6238.5,1363.5C 6238.38,1362.89 6238.04,1362.56 6237.5,1362.5C 6236.87,1358.2 6236.37,1353.86 6236,1349.5C 6235.33,1263.5 6235.33,1177.5 6236,1091.5C 6286.41,1059.61 6332.91,1022.61 6375.5,980.5 Z"/></g>
<g><path style="opacity:1" fill="#ff7854" d="M 3555.5,1031.5 C 3559.31,1052 3562.15,1072.67 3564,1093.5C 3571.09,1163.43 3577.42,1233.43 3583,1303.5C 3583.91,1332.19 3583.58,1360.86 3582,1389.5C 3578.94,1413.02 3570.61,1434.35 3557,1453.5C 3538.33,1475.67 3514.83,1484 3486.5,1478.5C 3455.8,1470.3 3435.63,1450.97 3426,1420.5C 3424.28,1414.25 3422.95,1407.91 3422,1401.5C 3420.15,1355.18 3420.15,1308.85 3422,1262.5C 3425.22,1185.74 3429.89,1109.07 3436,1032.5C 3443.51,1003 3462.51,987.331 3493,985.5C 3525.51,985.156 3546.34,1000.49 3555.5,1031.5 Z"/></g>
<g><path style="opacity:1" fill="#ffb067" d="M 5835.5,1014.5 C 5836.5,1014.5 5837.5,1014.5 5838.5,1014.5C 5838.5,1031.5 5838.5,1048.5 5838.5,1065.5C 5766.19,1064.51 5693.86,1064.18 5621.5,1064.5C 5621.99,1113.23 5614.16,1160.56 5598,1206.5C 5582.56,1243.94 5559.4,1275.77 5528.5,1302C 5508.62,1318.86 5487.12,1333.36 5464,1345.5C 5459.69,1342.68 5455.52,1339.68 5451.5,1336.5C 5440.38,1328.55 5429.38,1320.38 5418.5,1312C 5463.56,1293.27 5500.72,1264.44 5530,1225.5C 5549.11,1195.52 5561.11,1162.85 5566,1127.5C 5567.21,1115.49 5568.37,1103.49 5569.5,1091.5C 5570.35,1082.53 5570.68,1073.53 5570.5,1064.5C 5500.17,1064.5 5429.83,1064.5 5359.5,1064.5C 5350.58,1064.18 5341.75,1064.52 5333,1065.5C 5332.5,1048.5 5332.33,1031.5 5332.5,1014.5C 5343.5,1015.27 5354.5,1016.1 5365.5,1017C 5510.5,1017.67 5655.5,1017.67 5800.5,1017C 5812.19,1016.34 5823.85,1015.51 5835.5,1014.5 Z"/></g>
<g><path style="opacity:1" fill="#ffc9ba" d="M 873.5,1028.5 C 902.143,1032.96 921.309,1048.96 931,1076.5C 943.28,1123.57 952.614,1171.23 959,1219.5C 962.398,1235.78 965.564,1252.11 968.5,1268.5C 968.64,1270.03 969.307,1271.03 970.5,1271.5C 954.346,1273.48 938.012,1275.15 921.5,1276.5C 910.347,1215.25 899.513,1153.91 889,1092.5C 884.765,1070.89 879.598,1049.56 873.5,1028.5 Z"/></g>
<g><path style="opacity:1" fill="#ffc8ba" d="M 3555.5,1031.5 C 3586.42,1033.91 3605.59,1050.24 3613,1080.5C 3623.27,1164.63 3631.6,1248.96 3638,1333.5C 3641.17,1368.53 3641.17,1403.53 3638,1438.5C 3634.71,1463.4 3625.04,1485.4 3609,1504.5C 3582.35,1529.45 3552.85,1533.28 3520.5,1516C 3505.8,1506.47 3494.47,1493.97 3486.5,1478.5C 3514.83,1484 3538.33,1475.67 3557,1453.5C 3570.61,1434.35 3578.94,1413.02 3582,1389.5C 3583.58,1360.86 3583.91,1332.19 3583,1303.5C 3577.42,1233.43 3571.09,1163.43 3564,1093.5C 3562.15,1072.67 3559.31,1052 3555.5,1031.5 Z"/></g>
<g><path style="opacity:1" fill="#ffc8ba" d="M 2592.5,1040.5 C 2631.86,1057.37 2656.69,1086.7 2667,1128.5C 2670.78,1155.17 2665.44,1179.83 2651,1202.5C 2642.64,1212.76 2631.81,1217.76 2618.5,1217.5C 2611.69,1217.17 2605.02,1216 2598.5,1214C 2582.91,1208.47 2567.24,1203.14 2551.5,1198C 2513.64,1189.12 2482.64,1199.62 2458.5,1229.5C 2451.31,1225.74 2443.98,1222.24 2436.5,1219C 2420.09,1213.2 2403.76,1207.2 2387.5,1201C 2392,1195.17 2396.5,1189.33 2401,1183.5C 2427.03,1152.89 2459.53,1142.72 2498.5,1153C 2516.53,1160.01 2534.86,1166.01 2553.5,1171C 2572.8,1174.43 2587.63,1167.93 2598,1151.5C 2617.67,1113.34 2615.83,1076.34 2592.5,1040.5 Z"/></g>
<g><path style="opacity:1" fill="#ffdec1" d="M 5835.5,1014.5 C 5836.57,1013.57 5837.9,1013.23 5839.5,1013.5C 5839.5,1023.5 5839.5,1033.5 5839.5,1043.5C 5848.51,1042.92 5857.51,1042.25 5866.5,1041.5C 5866.5,1058.5 5866.5,1075.5 5866.5,1092.5C 5794.17,1091.56 5721.84,1091.23 5649.5,1091.5C 5648.99,1131.88 5643.49,1171.55 5633,1210.5C 5624.36,1242.12 5609.69,1270.46 5589,1295.5C 5561.55,1326.64 5529.71,1352.14 5493.5,1372C 5492.17,1372.67 5490.83,1372.67 5489.5,1372C 5475.35,1361.09 5461.01,1350.42 5446.5,1340C 5447.96,1338.37 5449.62,1337.21 5451.5,1336.5C 5455.52,1339.68 5459.69,1342.68 5464,1345.5C 5487.12,1333.36 5508.62,1318.86 5528.5,1302C 5559.4,1275.77 5582.56,1243.94 5598,1206.5C 5614.16,1160.56 5621.99,1113.23 5621.5,1064.5C 5693.86,1064.18 5766.19,1064.51 5838.5,1065.5C 5838.5,1048.5 5838.5,1031.5 5838.5,1014.5C 5837.5,1014.5 5836.5,1014.5 5835.5,1014.5 Z"/></g>
<g><path style="opacity:1" fill="#ffc8ba" d="M 3222.5,1056.5 C 3232.46,1061.29 3241.8,1067.12 3250.5,1074C 3270.27,1091.09 3287.1,1110.59 3301,1132.5C 3327.79,1177.5 3348.79,1225.17 3364,1275.5C 3368.54,1290.12 3372.87,1304.79 3377,1319.5C 3384.08,1362.22 3377.74,1402.89 3358,1441.5C 3353.59,1449.99 3348.92,1458.33 3344,1466.5C 3333.18,1483.32 3318.02,1493.82 3298.5,1498C 3277.88,1499.77 3261.05,1492.61 3248,1476.5C 3242.73,1468.96 3238.23,1460.96 3234.5,1452.5C 3248.8,1451.85 3261.47,1447.01 3272.5,1438C 3285.85,1424.14 3296.35,1408.31 3304,1390.5C 3320.32,1356.25 3326.32,1320.25 3322,1282.5C 3312.75,1244.75 3301.08,1207.75 3287,1171.5C 3271.12,1129.71 3249.62,1091.37 3222.5,1056.5 Z"/></g>
<g><path style="opacity:1" fill="#ffdec1" d="M 5359.5,1064.5 C 5429.83,1064.5 5500.17,1064.5 5570.5,1064.5C 5570.68,1073.53 5570.35,1082.53 5569.5,1091.5C 5499.48,1091.19 5429.48,1091.52 5359.5,1092.5C 5359.5,1083.17 5359.5,1073.83 5359.5,1064.5 Z"/></g>
<g><path style="opacity:1" fill="#ffdec1" d="M 6182.5,1122.5 C 6183.5,1135.99 6183.83,1149.66 6183.5,1163.5C 6130.17,1188.99 6075.17,1210.32 6018.5,1227.5C 6016.97,1227.47 6015.8,1226.8 6015,1225.5C 6009.98,1216.1 6004.48,1207.1 5998.5,1198.5C 6061.93,1178.46 6123.27,1153.13 6182.5,1122.5 Z"/></g>
<g><path style="opacity:1" fill="#ffc8ba" d="M 3129.5,1222.5 C 3127.81,1223.47 3126.31,1224.81 3125,1226.5C 3102.48,1258.03 3088.15,1293.03 3082,1331.5C 3080.09,1365.19 3077.75,1398.85 3075,1432.5C 3071.99,1453.55 3068.66,1474.55 3065,1495.5C 3056.05,1535.11 3031.55,1558.28 2991.5,1565C 2949.76,1569.97 2919.09,1554.13 2899.5,1517.5C 2911.04,1519.55 2922.71,1520.05 2934.5,1519C 2969.59,1514.55 2993.09,1495.72 3005,1462.5C 3012.94,1428.25 3018.27,1393.58 3021,1358.5C 3015.52,1276.92 3040.52,1206.58 3096,1147.5C 3104.25,1161.67 3112.25,1176.01 3120,1190.5C 3123.48,1201.09 3126.65,1211.75 3129.5,1222.5 Z"/></g>
<g><path style="opacity:1" fill="#ff7854" d="M 2098.5,1229.5 C 2124.35,1264.05 2137.02,1303.05 2136.5,1346.5C 2136.18,1425.29 2113.34,1496.63 2068,1560.5C 2020.37,1626.05 1955.87,1660.55 1874.5,1664C 1834.68,1660.99 1795.01,1656.66 1755.5,1651C 1732.76,1647.48 1711.09,1640.64 1690.5,1630.5C 1637.44,1602.88 1606.61,1559.21 1598,1499.5C 1589.42,1389.22 1624.58,1295.72 1703.5,1219C 1717.54,1206.62 1731.87,1194.62 1746.5,1183C 1782.07,1157.19 1821.74,1147.19 1865.5,1153C 1900.6,1158.51 1935.93,1161.51 1971.5,1162C 2023.01,1167.75 2065.34,1190.25 2098.5,1229.5 Z"/></g>
<g><path style="opacity:1" fill="#0dc0df" d="M 4565.5,1309.5 C 4573.57,1323.04 4578.24,1337.71 4579.5,1353.5C 4578.14,1378.67 4565.48,1394.84 4541.5,1402C 4524.57,1405.12 4508.23,1403.12 4492.5,1396C 4465.14,1384.15 4438.14,1371.49 4411.5,1358C 4312.24,1315.7 4220.57,1328.03 4136.5,1395C 4100.18,1424.65 4068.02,1458.15 4040,1495.5C 4010.27,1542.02 3991.6,1592.68 3984,1647.5C 3980.74,1721.59 4005.24,1784.59 4057.5,1836.5C 4104.77,1880.81 4160.44,1909.98 4224.5,1924C 4279.24,1935.07 4334.24,1936.41 4389.5,1928C 4425.54,1922.22 4461.54,1916.22 4497.5,1910C 4551.82,1902.62 4587.82,1924.46 4605.5,1975.5C 4612.05,2002.92 4606.22,2027.26 4588,2048.5C 4566.21,2071.63 4541.04,2090.13 4512.5,2104C 4461.26,2121.71 4408.6,2133.05 4354.5,2138C 4311.88,2141.66 4269.21,2142.33 4226.5,2140C 4134.81,2123.8 4050.81,2089.47 3974.5,2037C 3961.32,2026.91 3948.32,2016.57 3935.5,2006C 3923.33,1994.66 3911.33,1983.16 3899.5,1971.5C 3795.59,1857.45 3762.42,1725.12 3800,1574.5C 3834.23,1437.76 3909.06,1329.6 4024.5,1250C 4067.95,1219.94 4114.62,1195.6 4164.5,1177C 4263.5,1145.67 4359.16,1153.67 4451.5,1201C 4487.12,1220.95 4518.29,1246.45 4545,1277.5C 4552.59,1287.69 4559.43,1298.35 4565.5,1309.5 Z"/></g>
<g><path style="opacity:1" fill="#ffc087" d="M 6182.5,1122.5 C 6182.56,1121.96 6182.89,1121.62 6183.5,1121.5C 6184.83,1187.67 6184.83,1253.67 6183.5,1319.5C 6183.5,1267.5 6183.5,1215.5 6183.5,1163.5C 6183.83,1149.66 6183.5,1135.99 6182.5,1122.5 Z"/></g>
<g><path style="opacity:1" fill="#0dc0df" d="M 5358.5,1341.5 C 5373.22,1369.16 5383.05,1398.49 5388,1429.5C 5394.16,1484.55 5379.16,1532.89 5343,1574.5C 5333.14,1584.7 5322.97,1594.53 5312.5,1604C 5294.83,1614.33 5277.17,1624.67 5259.5,1635C 5277.06,1653.07 5295.06,1670.57 5313.5,1687.5C 5334.87,1707.85 5353.2,1730.52 5368.5,1755.5C 5414.94,1838.5 5418.78,1923.5 5380,2010.5C 5354.95,2060.21 5318.78,2099.71 5271.5,2129C 5183.21,2169.12 5090.54,2188.12 4993.5,2186C 4923.79,2181.87 4858.13,2163.54 4796.5,2131C 4782.45,2122.45 4769.12,2112.95 4756.5,2102.5C 4744.53,2091.37 4733.03,2079.7 4722,2067.5C 4708.78,2046.32 4705.45,2023.65 4712,1999.5C 4717.53,1983.91 4722.86,1968.24 4728,1952.5C 4730.97,1941.3 4733.31,1929.97 4735,1918.5C 4758.51,1744.38 4782.85,1570.38 4808,1396.5C 4809.75,1385.15 4809.75,1373.82 4808,1362.5C 4805.89,1356.07 4802.56,1350.41 4798,1345.5C 4792.7,1341.2 4787.7,1336.53 4783,1331.5C 4774.31,1315.41 4777.14,1301.58 4791.5,1290C 4808.55,1276.62 4825.88,1263.62 4843.5,1251C 4857.1,1241.87 4871.77,1234.87 4887.5,1230C 4979.18,1217.54 5071.18,1214.54 5163.5,1221C 5218.1,1225.3 5266.43,1244.63 5308.5,1279C 5328.45,1297.42 5345.12,1318.26 5358.5,1341.5 Z"/></g>
<g><path style="opacity:1" fill="#ffc8ba" d="M 2098.5,1229.5 C 2152.42,1259.27 2183.59,1304.93 2192,1366.5C 2197.68,1451.06 2177.01,1528.4 2130,1598.5C 2092.84,1653.97 2041.67,1689.47 1976.5,1705C 1964.2,1707.08 1951.87,1708.91 1939.5,1710.5C 1901.44,1707.28 1863.44,1703.45 1825.5,1699C 1781.58,1694.48 1742.58,1678.48 1708.5,1651C 1701.52,1644.87 1695.52,1638.03 1690.5,1630.5C 1711.09,1640.64 1732.76,1647.48 1755.5,1651C 1795.01,1656.66 1834.68,1660.99 1874.5,1664C 1955.87,1660.55 2020.37,1626.05 2068,1560.5C 2113.34,1496.63 2136.18,1425.29 2136.5,1346.5C 2137.02,1303.05 2124.35,1264.05 2098.5,1229.5 Z"/></g>
<g><path style="opacity:1" fill="#ffc8ba" d="M 1946.5,1353.5 C 1939.9,1350.91 1933.23,1348.41 1926.5,1346C 1911.65,1341.4 1899.15,1344.9 1889,1356.5C 1866.48,1387.21 1849.48,1420.88 1838,1457.5C 1835.97,1464.36 1834.8,1471.36 1834.5,1478.5C 1818.3,1479.16 1803.3,1475.33 1789.5,1467C 1780.51,1459.07 1776.51,1449.07 1777.5,1437C 1779.87,1415.55 1785.7,1395.05 1795,1375.5C 1804.71,1353.07 1816.71,1332.07 1831,1312.5C 1840.41,1300.21 1852.58,1296.04 1867.5,1300C 1889.01,1307.25 1909.34,1316.92 1928.5,1329C 1933.33,1332.5 1937.5,1336.67 1941,1341.5C 1943.66,1345.14 1945.49,1349.14 1946.5,1353.5 Z"/></g>
<g><path style="opacity:1" fill="#9ee6f2" d="M 4565.5,1309.5 C 4592.91,1333.76 4612.08,1363.43 4623,1398.5C 4626.29,1417.53 4621.46,1434.03 4608.5,1448C 4597.82,1456.34 4585.65,1460.51 4572,1460.5C 4563.98,1460.35 4556.15,1459.18 4548.5,1457C 4538.68,1453.73 4529.01,1450.06 4519.5,1446C 4498.65,1435.41 4477.65,1425.08 4456.5,1415C 4413.73,1396.45 4369.07,1388.45 4322.5,1391C 4287.6,1394.85 4254.94,1405.52 4224.5,1423C 4186.59,1445.54 4152.76,1473.38 4123,1506.5C 4112,1519.5 4101,1532.5 4090,1545.5C 4071.14,1571.88 4056.47,1600.55 4046,1631.5C 4019.33,1701.6 4023.16,1769.93 4057.5,1836.5C 4005.24,1784.59 3980.74,1721.59 3984,1647.5C 3991.6,1592.68 4010.27,1542.02 4040,1495.5C 4068.02,1458.15 4100.18,1424.65 4136.5,1395C 4220.57,1328.03 4312.24,1315.7 4411.5,1358C 4438.14,1371.49 4465.14,1384.15 4492.5,1396C 4508.23,1403.12 4524.57,1405.12 4541.5,1402C 4565.48,1394.84 4578.14,1378.67 4579.5,1353.5C 4578.24,1337.71 4573.57,1323.04 4565.5,1309.5 Z"/></g>
<g><path style="opacity:1" fill="#ffc8ba" d="M 2642.5,1334.5 C 2680.02,1356.52 2708.85,1386.85 2729,1425.5C 2751.07,1475.8 2747.4,1524.13 2718,1570.5C 2699.57,1596.6 2676.4,1617.43 2648.5,1633C 2607.04,1655.39 2563.04,1670.39 2516.5,1678C 2487.29,1681.35 2458.62,1678.68 2430.5,1670C 2403.4,1662.45 2378.07,1651.11 2354.5,1636C 2345.45,1628.46 2338.11,1619.63 2332.5,1609.5C 2343.69,1613.95 2355.03,1618.12 2366.5,1622C 2397.48,1632 2429.15,1635.33 2461.5,1632C 2493.94,1626.85 2525.28,1617.85 2555.5,1605C 2582.42,1593.89 2607.08,1579.22 2629.5,1561C 2670.55,1525.2 2689.39,1480.03 2686,1425.5C 2680.57,1390.65 2666.07,1360.32 2642.5,1334.5 Z"/></g>
<g><path style="opacity:1" fill="#fffefe" d="M 1946.5,1353.5 C 1948.49,1357.31 1949.49,1361.48 1949.5,1366C 1946.4,1393.57 1938.56,1419.74 1926,1444.5C 1912.4,1466.39 1892.57,1477.56 1866.5,1478C 1855.84,1478.5 1845.17,1478.67 1834.5,1478.5C 1834.8,1471.36 1835.97,1464.36 1838,1457.5C 1849.48,1420.88 1866.48,1387.21 1889,1356.5C 1899.15,1344.9 1911.65,1341.4 1926.5,1346C 1933.23,1348.41 1939.9,1350.91 1946.5,1353.5 Z"/></g>
<g><path style="opacity:1" fill="#9ee6f2" d="M 5358.5,1341.5 C 5397.64,1379.77 5422.14,1426.1 5432,1480.5C 5440.24,1538.76 5424.91,1589.76 5386,1633.5C 5376.8,1643.03 5367.3,1652.2 5357.5,1661C 5342.6,1669.61 5327.94,1678.44 5313.5,1687.5C 5295.06,1670.57 5277.06,1653.07 5259.5,1635C 5277.17,1624.67 5294.83,1614.33 5312.5,1604C 5322.97,1594.53 5333.14,1584.7 5343,1574.5C 5379.16,1532.89 5394.16,1484.55 5388,1429.5C 5383.05,1398.49 5373.22,1369.16 5358.5,1341.5 Z"/></g>
<g><path style="opacity:1" fill="#ffc8ba" d="M 2283.5,1344.5 C 2290.47,1347.99 2297.47,1351.49 2304.5,1355C 2339.86,1368.79 2375.53,1381.79 2411.5,1394C 2436.04,1400.41 2460.71,1406.24 2485.5,1411.5C 2484.81,1416.8 2484.47,1422.14 2484.5,1427.5C 2466.83,1427.5 2449.17,1427.5 2431.5,1427.5C 2408.07,1419.19 2384.74,1410.35 2361.5,1401C 2333.63,1389.33 2309.13,1372.83 2288,1351.5C 2286.25,1349.27 2284.75,1346.93 2283.5,1344.5 Z"/></g>
<g><path style="opacity:1" fill="#9ee5f1" d="M 5210.5,1435.5 C 5165.26,1417.73 5118.59,1412.56 5070.5,1420C 5050.51,1423.9 5030.51,1427.73 5010.5,1431.5C 5008.25,1465.47 5006.25,1499.47 5004.5,1533.5C 5004.5,1536.36 5004.84,1539.02 5005.5,1541.5C 4989.22,1542.95 4972.89,1544.95 4956.5,1547.5C 4959.13,1489.81 4962.13,1432.15 4965.5,1374.5C 4981.58,1371.87 4997.58,1368.71 5013.5,1365C 5065.14,1354.54 5115.47,1358.88 5164.5,1378C 5177.37,1382.68 5188.87,1389.51 5199,1398.5C 5203.09,1403.67 5206.42,1409.34 5209,1415.5C 5210.33,1422.09 5210.83,1428.76 5210.5,1435.5 Z"/></g>
<g><path style="opacity:1" fill="#ffcc9e" d="M 6237.5,1362.5 C 6238.04,1362.56 6238.38,1362.89 6238.5,1363.5C 6229.19,1364.5 6219.86,1364.83 6210.5,1364.5C 6200.65,1364.83 6190.99,1364.49 6181.5,1363.5C 6200.34,1363.83 6219.01,1363.5 6237.5,1362.5 Z"/></g>
<g><path style="opacity:1" fill="#ffc8ba" d="M 1338.5,1444.5 C 1336.25,1443.89 1333.92,1443.56 1331.5,1443.5C 1219.17,1455.24 1106.83,1466.91 994.5,1478.5C 1005.41,1577.5 1016.57,1676.5 1028,1775.5C 1030.3,1795.9 1029.97,1816.24 1027,1836.5C 1016.78,1878.41 990.276,1897.24 947.5,1893C 924.276,1885.94 908.276,1871.11 899.5,1848.5C 939.493,1847.9 963.327,1827.9 971,1788.5C 974.153,1767.18 974.153,1745.84 971,1724.5C 962.333,1649.83 953.666,1575.16 945,1500.5C 942.502,1477.86 940.335,1455.19 938.5,1432.5C 1070.15,1418.68 1201.81,1405.01 1333.5,1391.5C 1333.69,1409.33 1335.36,1426.99 1338.5,1444.5 Z"/></g>
<g><path style="opacity:1" fill="#fefefe" d="M 5210.5,1435.5 C 5204.31,1460.74 5190.97,1481.24 5170.5,1497C 5146.58,1513.31 5120.25,1523.98 5091.5,1529C 5063.04,1534.64 5034.37,1538.81 5005.5,1541.5C 5004.84,1539.02 5004.5,1536.36 5004.5,1533.5C 5006.25,1499.47 5008.25,1465.47 5010.5,1431.5C 5030.51,1427.73 5050.51,1423.9 5070.5,1420C 5118.59,1412.56 5165.26,1417.73 5210.5,1435.5 Z"/></g>
<g><path style="opacity:1" fill="#0dc0df" d="M 6230.5,1532.5 C 6239.87,1582.6 6221.54,1618.43 6175.5,1640C 6161.86,1645.46 6147.69,1647.96 6133,1647.5C 6120.8,1647.21 6108.63,1646.38 6096.5,1645C 6036,1636.87 5975.5,1629.04 5915,1621.5C 5917.31,1737.13 5917.97,1852.8 5917,1968.5C 5915.61,2021.23 5912.94,2073.9 5909,2126.5C 5903.77,2164.55 5889.77,2198.88 5867,2229.5C 5842.38,2253.17 5813.21,2261.34 5779.5,2254C 5771.08,2252.25 5763.08,2249.42 5755.5,2245.5C 5730.44,2232.59 5714.94,2212.26 5709,2184.5C 5701.64,2152.56 5698.97,2120.22 5701,2087.5C 5717.97,1945.52 5737.14,1803.85 5758.5,1662.5C 5760.53,1648.91 5761.87,1635.24 5762.5,1621.5C 5762.17,1620.17 5761.83,1618.83 5761.5,1617.5C 5715.21,1606.51 5668.88,1595.68 5622.5,1585C 5610.84,1581.95 5599.84,1577.45 5589.5,1571.5C 5551.76,1551.48 5537.59,1520.48 5547,1478.5C 5556.6,1453.57 5574.1,1436.73 5599.5,1428C 5608.98,1424.88 5618.64,1422.55 5628.5,1421C 5720.81,1423.17 5813.15,1424.84 5905.5,1426C 5966.58,1428.4 6027.25,1434.74 6087.5,1445C 6115.33,1450.12 6142.67,1457.12 6169.5,1466C 6194.55,1477.39 6213.39,1495.22 6226,1519.5C 6227.8,1523.74 6229.3,1528.08 6230.5,1532.5 Z"/></g>
<g><path style="opacity:1" fill="#9ee6f2" d="M 6230.5,1532.5 C 6269.77,1557.44 6284.6,1592.78 6275,1638.5C 6261.77,1674.38 6236.27,1695.88 6198.5,1703C 6186.54,1704.53 6174.54,1704.87 6162.5,1704C 6095,1694.67 6027.34,1686.5 5959.5,1679.5C 5962.61,1805.82 5963.11,1932.15 5961,2058.5C 5959.54,2105.98 5956.21,2153.31 5951,2200.5C 5944.58,2229.33 5933.25,2256 5917,2280.5C 5896.87,2304.55 5871.03,2315.39 5839.5,2313C 5803,2310.35 5776.5,2292.85 5760,2260.5C 5758.19,2255.57 5756.69,2250.57 5755.5,2245.5C 5763.08,2249.42 5771.08,2252.25 5779.5,2254C 5813.21,2261.34 5842.38,2253.17 5867,2229.5C 5889.77,2198.88 5903.77,2164.55 5909,2126.5C 5912.94,2073.9 5915.61,2021.23 5917,1968.5C 5917.97,1852.8 5917.31,1737.13 5915,1621.5C 5975.5,1629.04 6036,1636.87 6096.5,1645C 6108.63,1646.38 6120.8,1647.21 6133,1647.5C 6147.69,1647.96 6161.86,1645.46 6175.5,1640C 6221.54,1618.43 6239.87,1582.6 6230.5,1532.5 Z"/></g>
<g><path style="opacity:1" fill="#9ee6f2" d="M 5589.5,1571.5 C 5599.84,1577.45 5610.84,1581.95 5622.5,1585C 5668.88,1595.68 5715.21,1606.51 5761.5,1617.5C 5761.83,1618.83 5762.17,1620.17 5762.5,1621.5C 5761.87,1635.24 5760.53,1648.91 5758.5,1662.5C 5727.75,1656.2 5697.09,1649.37 5666.5,1642C 5640.79,1634.91 5619.29,1621.41 5602,1601.5C 5595.92,1592.33 5591.75,1582.33 5589.5,1571.5 Z"/></g>
<g><path style="opacity:1" fill="#9ee5f2" d="M 5218.5,1830.5 C 5188.6,1806.73 5154.6,1791.89 5116.5,1786C 5077.62,1780.18 5038.62,1777.85 4999.5,1779C 4989.62,1786.25 4982.78,1795.75 4979,1807.5C 4970.2,1861.88 4963.87,1916.55 4960,1971.5C 4957.72,1980.14 4956.89,1988.8 4957.5,1997.5C 4945.24,1996.36 4933.9,1992.52 4923.5,1986C 4914.1,1978.03 4909.43,1967.87 4909.5,1955.5C 4911.77,1936.47 4914.27,1917.47 4917,1898.5C 4920.39,1848.18 4926.39,1798.18 4935,1748.5C 4938.95,1737.76 4945.45,1728.92 4954.5,1722C 5000.52,1720.31 5046.18,1723.98 5091.5,1733C 5148.09,1747.26 5190.42,1779.76 5218.5,1830.5 Z"/></g>
<g><path style="opacity:1" fill="#9ee6f2" d="M 5368.5,1755.5 C 5437.58,1826.27 5463.08,1910.6 5445,2008.5C 5425.96,2086.16 5382.46,2145.66 5314.5,2187C 5233.75,2223.23 5149.08,2242.06 5060.5,2243.5C 4982.14,2242.66 4908.48,2223.83 4839.5,2187C 4815.71,2172.49 4794.21,2154.99 4775,2134.5C 4766.51,2125.19 4760.34,2114.52 4756.5,2102.5C 4769.12,2112.95 4782.45,2122.45 4796.5,2131C 4858.13,2163.54 4923.79,2181.87 4993.5,2186C 5090.54,2188.12 5183.21,2169.12 5271.5,2129C 5318.78,2099.71 5354.95,2060.21 5380,2010.5C 5418.78,1923.5 5414.94,1838.5 5368.5,1755.5 Z"/></g>
<g><path style="opacity:1" fill="#fefefe" d="M 5218.5,1830.5 C 5233.31,1863.24 5233.15,1895.91 5218,1928.5C 5204.66,1951.51 5185.49,1967.67 5160.5,1977C 5094.56,2001.16 5026.89,2007.99 4957.5,1997.5C 4956.89,1988.8 4957.72,1980.14 4960,1971.5C 4963.87,1916.55 4970.2,1861.88 4979,1807.5C 4982.78,1795.75 4989.62,1786.25 4999.5,1779C 5038.62,1777.85 5077.62,1780.18 5116.5,1786C 5154.6,1791.89 5188.6,1806.73 5218.5,1830.5 Z"/></g>
<g><path style="opacity:1" fill="#ffb067" d="M 3086.5,2012.5 C 3071.09,2036.31 3055.43,2059.98 3039.5,2083.5C 2976.48,2041.16 2912.15,2000.83 2846.5,1962.5C 2826.17,1950.67 2805.83,1938.83 2785.5,1927C 2800.32,1902.84 2815.15,1878.68 2830,1854.5C 2831.31,1852.19 2832.98,1850.19 2835,1848.5C 2922.81,1896.05 3008.14,1947.39 3091,2002.5C 3091.67,2003.5 3091.67,2004.5 3091,2005.5C 3089.28,2007.72 3087.78,2010.05 3086.5,2012.5 Z"/></g>
<g><path style="opacity:1" fill="#ffdfc1" d="M 2846.5,1962.5 C 2912.15,2000.83 2976.48,2041.16 3039.5,2083.5C 3055.43,2059.98 3071.09,2036.31 3086.5,2012.5C 3086.41,2013.5 3086.75,2014.33 3087.5,2015C 3106.83,2027.67 3126.17,2040.33 3145.5,2053C 3128,2079.83 3110.5,2106.67 3093,2133.5C 3010.92,2078.19 2926.42,2026.53 2839.5,1978.5C 2838.42,1977.64 2838.25,1976.64 2839,1975.5C 2842.03,1971.44 2844.53,1967.11 2846.5,1962.5 Z"/></g>
<g><path style="opacity:1" fill="#9ee6f2" d="M 3899.5,1971.5 C 3911.33,1983.16 3923.33,1994.66 3935.5,2006C 3948.32,2016.57 3961.32,2026.91 3974.5,2037C 4050.81,2089.47 4134.81,2123.8 4226.5,2140C 4269.21,2142.33 4311.88,2141.66 4354.5,2138C 4408.6,2133.05 4461.26,2121.71 4512.5,2104C 4541.04,2090.13 4566.21,2071.63 4588,2048.5C 4606.22,2027.26 4612.05,2002.92 4605.5,1975.5C 4631.34,1990.46 4646.84,2012.79 4652,2042.5C 4654.93,2072.71 4644.76,2097.54 4621.5,2117C 4603.78,2133.72 4584.11,2147.72 4562.5,2159C 4508.47,2178.27 4452.8,2190.27 4395.5,2195C 4350.85,2199.08 4306.18,2199.42 4261.5,2196C 4174.08,2178.66 4093.75,2144.99 4020.5,2095C 3973.19,2060.52 3932.85,2019.36 3899.5,1971.5 Z"/></g>
<g><path style="opacity:1" fill="#ffb067" d="M 1730.5,2170.5 C 1725.17,2183.19 1720.33,2196.19 1716,2209.5C 1708.94,2234.19 1701.77,2258.85 1694.5,2283.5C 1694.71,2284.09 1695.04,2284.59 1695.5,2285C 1708.9,2288.74 1722.23,2292.58 1735.5,2296.5C 1798.83,2314.67 1862.16,2332.83 1925.5,2351C 1950.96,2357.13 1976.63,2362.29 2002.5,2366.5C 1998.09,2380.73 1994.09,2395.06 1990.5,2409.5C 1982.92,2435.01 1975.59,2460.68 1968.5,2486.5C 1928.61,2474.04 1888.61,2461.87 1848.5,2450C 1797.36,2435.71 1746.36,2421.04 1695.5,2406C 1684.22,2402.85 1672.89,2400.01 1661.5,2397.5C 1619.59,2546.4 1576.76,2695.07 1533,2843.5C 1515,2880.09 1485.5,2896.26 1444.5,2892C 1427.85,2889.42 1411.51,2885.42 1395.5,2880C 1364.96,2870.32 1334.62,2860.15 1304.5,2849.5C 1293.72,2844.73 1282.72,2840.23 1271.5,2836C 1270.38,2835.16 1269.71,2833.99 1269.5,2832.5C 1276.53,2794.87 1283.36,2757.2 1290,2719.5C 1290.41,2719.04 1290.91,2718.71 1291.5,2718.5C 1324.97,2735.05 1359.63,2748.55 1395.5,2759C 1415.61,2762.56 1428.11,2754.39 1433,2734.5C 1465.16,2624.53 1496.99,2514.53 1528.5,2404.5C 1532.88,2390.36 1536.88,2376.03 1540.5,2361.5C 1446.35,2334.38 1352.02,2307.71 1257.5,2281.5C 1244.32,2277.97 1230.99,2275.14 1217.5,2273C 1216.98,2272.44 1216.64,2271.77 1216.5,2271C 1228.36,2230.88 1240.02,2190.72 1251.5,2150.5C 1277.15,2161.22 1303.15,2171.05 1329.5,2180C 1410.79,2203.49 1492.12,2226.65 1573.5,2249.5C 1581.9,2219.13 1590.4,2188.79 1599,2158.5C 1603.58,2136.99 1607.08,2115.33 1609.5,2093.5C 1655.55,2106.35 1701.55,2119.51 1747.5,2133C 1740.97,2145.09 1735.3,2157.59 1730.5,2170.5 Z"/></g>
<g><path style="opacity:1" fill="#ffb067" d="M 3542.5,2162.5 C 3546.73,2169.94 3551.23,2177.28 3556,2184.5C 3557.3,2186.36 3557.63,2188.36 3557,2190.5C 3497.52,2286.37 3426.36,2373.2 3343.5,2451C 3274.64,2515.22 3200.64,2572.55 3121.5,2623C 3009.25,2687.95 2890.58,2737.79 2765.5,2772.5C 2758.81,2773.47 2752.31,2775.13 2746,2777.5C 2726.37,2746.56 2707.54,2715.23 2689.5,2683.5C 2817.02,2656.94 2937.68,2612.11 3051.5,2549C 3186.34,2469.53 3302.84,2368.37 3401,2245.5C 3437.65,2198.23 3470.31,2148.23 3499,2095.5C 3513.36,2118.01 3527.86,2140.34 3542.5,2162.5 Z"/></g>
<g><path style="opacity:1" fill="#ffb067" d="M 2922.5,2275.5 C 2907.86,2298.1 2893.69,2321.1 2880,2344.5C 2879.31,2345.36 2878.48,2346.02 2877.5,2346.5C 2814.06,2304.76 2749.06,2265.42 2682.5,2228.5C 2661.5,2217.66 2640.5,2206.83 2619.5,2196C 2634.87,2170.08 2650.37,2144.25 2666,2118.5C 2666.74,2117.43 2667.74,2116.76 2669,2116.5C 2757.88,2161.43 2844.22,2210.43 2928,2263.5C 2926.49,2267.53 2924.66,2271.53 2922.5,2275.5 Z"/></g>
<g><path style="opacity:1" fill="#ffdec1" d="M 2765.5,2772.5 C 2890.58,2737.79 3009.25,2687.95 3121.5,2623C 3200.64,2572.55 3274.64,2515.22 3343.5,2451C 3426.36,2373.2 3497.52,2286.37 3557,2190.5C 3557.63,2188.36 3557.3,2186.36 3556,2184.5C 3551.23,2177.28 3546.73,2169.94 3542.5,2162.5C 3545.65,2156.86 3548.82,2151.19 3552,2145.5C 3572.49,2176.18 3592.15,2207.18 3611,2238.5C 3549.23,2337.99 3475.06,2427.83 3388.5,2508C 3310.2,2580.65 3224.87,2643.65 3132.5,2697C 3026.8,2753.13 2915.97,2796.29 2800,2826.5C 2798.74,2826.24 2797.74,2825.57 2797,2824.5C 2786.74,2806.97 2776.24,2789.64 2765.5,2772.5 Z"/></g>
<g><path style="opacity:1" fill="#ffdec1" d="M 1730.5,2170.5 C 1730.88,2171.93 1731.88,2172.76 1733.5,2173C 1747.89,2177.01 1762.22,2181.18 1776.5,2185.5C 1758.69,2220.93 1745.02,2257.93 1735.5,2296.5C 1722.23,2292.58 1708.9,2288.74 1695.5,2285C 1695.04,2284.59 1694.71,2284.09 1694.5,2283.5C 1701.77,2258.85 1708.94,2234.19 1716,2209.5C 1720.33,2196.19 1725.17,2183.19 1730.5,2170.5 Z"/></g>
<g><path style="opacity:1" fill="#ffdfc2" d="M 2682.5,2228.5 C 2749.06,2265.42 2814.06,2304.76 2877.5,2346.5C 2878.48,2346.02 2879.31,2345.36 2880,2344.5C 2893.69,2321.1 2907.86,2298.1 2922.5,2275.5C 2940.77,2286.98 2959.1,2298.48 2977.5,2310C 2979.33,2310.9 2980.66,2312.23 2981.5,2314C 2965.05,2341.73 2948.22,2369.23 2931,2396.5C 2847.82,2341.58 2761.65,2291.25 2672.5,2245.5C 2676.11,2239.94 2679.44,2234.28 2682.5,2228.5 Z"/></g>
<g><path style="opacity:1" fill="#ffdfc2" d="M 1257.5,2281.5 C 1352.02,2307.71 1446.35,2334.38 1540.5,2361.5C 1536.88,2376.03 1532.88,2390.36 1528.5,2404.5C 1528.42,2403.25 1527.76,2402.42 1526.5,2402C 1441.36,2377.17 1356.03,2353.17 1270.5,2330C 1262.22,2328.17 1253.89,2326.67 1245.5,2325.5C 1249.3,2310.78 1253.3,2296.11 1257.5,2281.5 Z"/></g>
<g><path style="opacity:1" fill="#ffb067" d="M 1401.5,2482.5 C 1328.21,2554.83 1248.54,2618.83 1162.5,2674.5C 1148.39,2657.24 1134.05,2640.24 1119.5,2623.5C 1107.42,2607.91 1094.75,2592.75 1081.5,2578C 1171.84,2527.37 1252.67,2464.2 1324,2388.5C 1354.5,2415 1385,2441.5 1415.5,2468C 1410.63,2472.7 1405.96,2477.54 1401.5,2482.5 Z"/></g>
<g><path style="opacity:1" fill="#ffdec1" d="M 1990.5,2409.5 C 1990.41,2410.5 1990.75,2411.33 1991.5,2412C 2004.72,2414.93 2018.06,2417.09 2031.5,2418.5C 2020.01,2458.77 2008.68,2499.11 1997.5,2539.5C 1978.43,2533.64 1959.43,2527.48 1940.5,2521C 1857.77,2497.26 1775.11,2473.42 1692.5,2449.5C 1650.35,2592.47 1608.85,2735.81 1568,2879.5C 1553.27,2928.97 1520.1,2950.47 1468.5,2944C 1410.79,2929.54 1354.45,2910.87 1299.5,2888C 1298.9,2886.94 1298.57,2885.77 1298.5,2884.5C 1300.98,2872.91 1302.98,2861.24 1304.5,2849.5C 1334.62,2860.15 1364.96,2870.32 1395.5,2880C 1411.51,2885.42 1427.85,2889.42 1444.5,2892C 1485.5,2896.26 1515,2880.09 1533,2843.5C 1576.76,2695.07 1619.59,2546.4 1661.5,2397.5C 1672.89,2400.01 1684.22,2402.85 1695.5,2406C 1746.36,2421.04 1797.36,2435.71 1848.5,2450C 1888.61,2461.87 1928.61,2474.04 1968.5,2486.5C 1975.59,2460.68 1982.92,2435.01 1990.5,2409.5 Z"/></g>
<g><path style="opacity:1" fill="#ffdec1" d="M 1401.5,2482.5 C 1415.43,2494.82 1429.43,2507.15 1443.5,2519.5C 1444.52,2520 1444.69,2520.67 1444,2521.5C 1366.8,2599.02 1282.8,2667.69 1192,2727.5C 1164.83,2695 1137.67,2662.5 1110.5,2630C 1113.17,2628.67 1115.83,2627.33 1118.5,2626C 1119.25,2625.33 1119.59,2624.5 1119.5,2623.5C 1134.05,2640.24 1148.39,2657.24 1162.5,2674.5C 1248.54,2618.83 1328.21,2554.83 1401.5,2482.5 Z"/></g>
<g><path style="opacity:1" fill="#ffb067" d="M 1847.5,2584.5 C 1874.64,2661.59 1897.31,2739.92 1915.5,2819.5C 1879.34,2826.89 1843.34,2834.89 1807.5,2843.5C 1802.5,2844.39 1797.5,2845.39 1792.5,2846.5C 1791.56,2846.39 1790.72,2846.06 1790,2845.5C 1771,2746.84 1744.84,2650.18 1711.5,2555.5C 1749.66,2547.1 1787.82,2538.77 1826,2530.5C 1826.77,2530.64 1827.44,2530.98 1828,2531.5C 1835.4,2548.86 1841.9,2566.52 1847.5,2584.5 Z"/></g>
<g><path style="opacity:1" fill="#ffdfc2" d="M 1807.5,2843.5 C 1843.34,2834.89 1879.34,2826.89 1915.5,2819.5C 1897.31,2739.92 1874.64,2661.59 1847.5,2584.5C 1850.31,2584.45 1852.98,2583.79 1855.5,2582.5C 1863.38,2598.96 1870.22,2615.96 1876,2633.5C 1902.49,2710.97 1925.32,2789.47 1944.5,2869C 1944.17,2869.83 1943.83,2870.67 1943.5,2871.5C 1902.98,2881.21 1862.31,2890.54 1821.5,2899.5C 1820.35,2899.18 1819.52,2898.52 1819,2897.5C 1815.67,2879.36 1811.84,2861.36 1807.5,2843.5 Z"/></g>
</svg>
