<?xml version="1.0" encoding="UTF-8"?>
<!DOCTYPE svg PUBLIC "-//W3C//DTD SVG 1.1//EN" "http://www.w3.org/Graphics/SVG/1.1/DTD/svg11.dtd">
<svg xmlns="http://www.w3.org/2000/svg" version="1.1" width="6912px" height="3456px" style="shape-rendering:geometricPrecision; text-rendering:geometricPrecision; image-rendering:optimizeQuality; fill-rule:evenodd; clip-rule:evenodd" xmlns:xlink="http://www.w3.org/1999/xlink">
<g><path style="opacity:1" fill="#0ec0df" d="M 1073.5,302.5 C 1074.5,302.414 1075.33,302.748 1076,303.5C 1137.05,379.092 1198.21,454.592 1259.5,530C 1261.5,531 1263.5,532 1265.5,533C 1361.27,551.287 1456.94,569.954 1552.5,589C 1476.33,651.167 1400.17,713.333 1324,775.5C 1323.33,776.833 1322.67,778.167 1322,779.5C 1303.84,875.628 1285.17,971.628 1266,1067.5C 1203.5,991 1141,914.5 1078.5,838C 981.439,819.046 884.439,799.879 787.5,780.5C 864.145,718.356 940.645,656.023 1017,593.5C 1036.16,496.558 1054.99,399.558 1073.5,302.5 Z"/></g>
<g><path style="opacity:1" fill="#ffb067" d="M 4187.5,667.5 C 4179.69,678.433 4171.86,689.433 4164,700.5C 4134.91,679.374 4105.08,659.374 4074.5,640.5C 4065.4,634.441 4056.07,628.608 4046.5,623C 4054.67,610.673 4063,598.506 4071.5,586.5C 4111.58,610.258 4150.58,635.592 4188.5,662.5C 4189.65,664.397 4189.32,666.064 4187.5,667.5 Z"/></g>
<g><path style="opacity:1" fill="#ffb068" d="M 4832.5,637.5 C 4847.71,647.191 4862.54,657.524 4877,668.5C 4877.67,669.167 4877.67,669.833 4877,670.5C 4871.96,676.039 4867.12,681.706 4862.5,687.5C 4860.8,690.395 4858.46,692.228 4855.5,693C 4833.07,675.075 4809.4,658.908 4784.5,644.5C 4791.17,636.664 4798,628.997 4805,621.5C 4814.3,626.645 4823.47,631.979 4832.5,637.5 Z"/></g>
<g><path style="opacity:1" fill="#ffdfc2" d="M 4862.5,687.5 C 4867.12,681.706 4871.96,676.039 4877,670.5C 4877.67,669.833 4877.67,669.167 4877,668.5C 4862.54,657.524 4847.71,647.191 4832.5,637.5C 4833.81,636.855 4834.81,635.855 4835.5,634.5C 4836.72,633.386 4838.06,633.219 4839.5,634C 4864.02,648.425 4887.69,664.092 4910.5,681C 4903.69,689.448 4896.52,697.615 4889,705.5C 4881.9,700.698 4875.06,695.531 4868.5,690C 4866.78,688.441 4864.78,687.608 4862.5,687.5 Z"/></g>
<g><path style="opacity:1" fill="#ffdec1" d="M 4074.5,640.5 C 4105.08,659.374 4134.91,679.374 4164,700.5C 4171.86,689.433 4179.69,678.433 4187.5,667.5C 4196,674.778 4205,681.611 4214.5,688C 4205.64,700.028 4196.97,712.194 4188.5,724.5C 4150.11,697.291 4110.78,671.457 4070.5,647C 4072.23,645.028 4073.57,642.861 4074.5,640.5 Z"/></g>
<g><path style="opacity:1" fill="#ffb068" d="M 4787.5,683.5 C 4802.4,693.723 4817.07,704.39 4831.5,715.5C 4826.48,721.519 4821.48,727.519 4816.5,733.5C 4815.04,735.463 4813.37,737.296 4811.5,739C 4810.09,739.315 4808.76,738.982 4807.5,738C 4785.72,720.275 4762.72,704.275 4738.5,690C 4745.37,682.132 4752.54,674.632 4760,667.5C 4769.32,672.673 4778.49,678.006 4787.5,683.5 Z"/></g>
<g><path style="opacity:1" fill="#ffdfc2" d="M 4816.5,733.5 C 4821.48,727.519 4826.48,721.519 4831.5,715.5C 4817.07,704.39 4802.4,693.723 4787.5,683.5C 4789.59,678.492 4792.59,677.659 4796.5,681C 4819.45,695.055 4841.61,710.221 4863,726.5C 4862.6,728.631 4861.6,730.631 4860,732.5C 4854.32,739.009 4848.49,745.343 4842.5,751.5C 4835.69,746.525 4829.02,741.358 4822.5,736C 4820.78,734.441 4818.78,733.608 4816.5,733.5 Z"/></g>
<g><path style="opacity:1" fill="#ffb067" d="M 4105.5,789.5 C 4098.19,800.101 4090.86,810.767 4083.5,821.5C 4053.65,801.076 4023.32,781.409 3992.5,762.5C 3983.19,757.179 3973.86,751.845 3964.5,746.5C 3972.25,733.996 3980.25,721.663 3988.5,709.5C 4028.5,731.827 4067.5,755.661 4105.5,781C 4106.69,782.019 4107.69,783.186 4108.5,784.5C 4107.24,786.029 4106.24,787.695 4105.5,789.5 Z"/></g>
<g><path style="opacity:1" fill="#ffb067" d="M 4398.5,744.5 C 4402.11,749.062 4404.61,754.062 4406,759.5C 4364.38,820.793 4313.54,873.293 4253.5,917C 4196.8,958.514 4134.47,989.181 4066.5,1009C 4051.41,1013.35 4036.41,1017.52 4021.5,1021.5C 4018.58,1022.29 4015.75,1022.29 4013,1021.5C 4005.92,1008.34 3998.59,995.338 3991,982.5C 3989.99,980.975 3989.49,979.308 3989.5,977.5C 4133.05,952.007 4250.55,883.007 4342,770.5C 4355.61,752.778 4368.11,734.278 4379.5,715C 4381.11,714.911 4382.28,715.745 4383,717.5C 4388.18,726.527 4393.35,735.527 4398.5,744.5 Z"/></g>
<g><path style="opacity:1" fill="#ffdec1" d="M 4021.5,1021.5 C 4036.41,1017.52 4051.41,1013.35 4066.5,1009C 4134.47,989.181 4196.8,958.514 4253.5,917C 4313.54,873.293 4364.38,820.793 4406,759.5C 4404.61,754.062 4402.11,749.062 4398.5,744.5C 4399.24,744.631 4399.91,744.464 4400.5,744C 4401.96,742.255 4403.29,740.422 4404.5,738.5C 4413.24,752.298 4421.74,766.298 4430,780.5C 4430.67,781.833 4430.67,783.167 4430,784.5C 4365.68,877.494 4282.84,948.994 4181.5,999C 4135.87,1019.43 4088.7,1035.27 4040,1046.5C 4038.11,1046.21 4036.78,1045.21 4036,1043.5C 4032.17,1036.5 4028.33,1029.5 4024.5,1022.5C 4023.68,1021.61 4022.68,1021.28 4021.5,1021.5 Z"/></g>
<g><path style="opacity:1" fill="#ffb067" d="M 4830.5,770.5 C 4834.31,774.135 4838.31,777.635 4842.5,781C 4808.59,819.242 4772.93,855.908 4735.5,891C 4700.96,921.715 4666.29,952.215 4631.5,982.5C 4647.61,1016.38 4663.44,1050.38 4679,1084.5C 4682.16,1091.49 4685.83,1098.15 4690,1104.5C 4699.39,1114.23 4710.56,1117.23 4723.5,1113.5C 4741.35,1109.72 4758.68,1104.22 4775.5,1097C 4826.46,1074.69 4875.46,1049.03 4922.5,1020C 4936.89,1010.94 4950.72,1001.11 4964,990.5C 4968.98,998.792 4973.15,1007.46 4976.5,1016.5C 4979.63,1022.59 4982.63,1028.76 4985.5,1035C 4937.43,1065.71 4887.43,1093.38 4835.5,1118C 4801.99,1134.61 4767.32,1148.28 4731.5,1159C 4721.63,1161.32 4711.63,1162.48 4701.5,1162.5C 4679.48,1160.91 4662.98,1150.58 4652,1131.5C 4604.27,1029.05 4556.27,926.713 4508,824.5C 4505.39,819.565 4502.39,814.898 4499,810.5C 4498.25,809.365 4498.42,808.365 4499.5,807.5C 4514.06,800.97 4528.56,794.304 4543,787.5C 4543.95,787.905 4544.61,788.572 4545,789.5C 4547.03,796.448 4549.53,803.115 4552.5,809.5C 4571.67,853.501 4591.67,897.168 4612.5,940.5C 4619.09,935.386 4625.42,930.053 4631.5,924.5C 4682.95,882.561 4731.45,837.227 4777,788.5C 4787.73,776.041 4797.73,763.041 4807,749.5C 4814.7,756.708 4822.54,763.708 4830.5,770.5 Z"/></g>
<g><path style="opacity:1" fill="#ffdec1" d="M 4723.5,1113.5 C 4710.56,1117.23 4699.39,1114.23 4690,1104.5C 4685.83,1098.15 4682.16,1091.49 4679,1084.5C 4663.44,1050.38 4647.61,1016.38 4631.5,982.5C 4666.29,952.215 4700.96,921.715 4735.5,891C 4772.93,855.908 4808.59,819.242 4842.5,781C 4838.31,777.635 4834.31,774.135 4830.5,770.5C 4832.02,770.489 4833.18,769.823 4834,768.5C 4835.42,765.991 4837.09,763.657 4839,761.5C 4850.83,772 4862.67,782.5 4874.5,793C 4828.13,845.032 4778.8,894.032 4726.5,940C 4705.87,958.308 4684.87,976.141 4663.5,993.5C 4681,1031.17 4698.5,1068.83 4716,1106.5C 4717.38,1108.75 4718.88,1110.92 4720.5,1113C 4721.45,1113.48 4722.45,1113.65 4723.5,1113.5 Z"/></g>
<g><path style="opacity:1" fill="#ffdec1" d="M 3992.5,762.5 C 4023.32,781.409 4053.65,801.076 4083.5,821.5C 4090.86,810.767 4098.19,800.101 4105.5,789.5C 4115.03,795.098 4124.03,801.431 4132.5,808.5C 4124.53,821.13 4116.19,833.463 4107.5,845.5C 4069.01,818.75 4029.35,793.75 3988.5,770.5C 3990.39,768.048 3991.73,765.381 3992.5,762.5 Z"/></g>
<g><path style="opacity:1" fill="#ffdec1" d="M 4631.5,924.5 C 4625.42,930.053 4619.09,935.386 4612.5,940.5C 4591.67,897.168 4571.67,853.501 4552.5,809.5C 4559.47,806.348 4566.47,803.181 4573.5,800C 4574.78,799.316 4575.95,799.483 4577,800.5C 4580.94,812.31 4585.27,823.977 4590,835.5C 4603.85,865.193 4617.68,894.86 4631.5,924.5 Z"/></g>
<g><path style="opacity:1" fill="#ff7854" d="M 2868.5,916.5 C 2878.35,942.542 2887.51,968.875 2896,995.5C 2917.87,1066.28 2940.04,1136.94 2962.5,1207.5C 2966.22,1206.98 2969.89,1206.15 2973.5,1205C 2980.56,1200.48 2987.56,1195.98 2994.5,1191.5C 3020.05,1175.93 3047.71,1166.43 3077.5,1163C 3114.01,1161.06 3146.01,1172.06 3173.5,1196C 3180.7,1203.04 3187.7,1210.2 3194.5,1217.5C 3223.43,1256.02 3245.6,1298.35 3261,1344.5C 3269.55,1368.82 3276.89,1393.49 3283,1418.5C 3286.35,1449.75 3281.68,1479.75 3269,1508.5C 3262.93,1522.31 3255.6,1535.31 3247,1547.5C 3234.6,1562.29 3218.76,1569.29 3199.5,1568.5C 3184.42,1565.93 3172.59,1558.27 3164,1545.5C 3155.19,1530.07 3148.52,1513.74 3144,1496.5C 3132.2,1452.62 3121.36,1408.62 3111.5,1364.5C 3109.7,1355.33 3107.2,1346.33 3104,1337.5C 3097.51,1323.64 3090.01,1310.8 3081.5,1299C 3046.66,1334.85 3025.83,1377.68 3019,1427.5C 3017.85,1475.25 3012.85,1522.59 3004,1569.5C 2994.67,1604.83 2971.83,1624.33 2935.5,1628C 2926.8,1628.74 2918.13,1628.58 2909.5,1627.5C 2889.47,1622.75 2873.97,1611.75 2863,1594.5C 2838.76,1538.11 2820.76,1479.78 2809,1419.5C 2783.19,1282.65 2760.19,1145.32 2740,1007.5C 2738.83,980.969 2740.49,954.636 2745,928.5C 2752.21,899.956 2770.04,882.122 2798.5,875C 2830.89,873.689 2854.22,887.522 2868.5,916.5 Z"/></g>
<g><path style="opacity:1" fill="#ffc9bb" d="M 2868.5,916.5 C 2886.87,920.373 2901.37,930.039 2912,945.5C 2915.59,951.675 2918.92,958.009 2922,964.5C 2947.28,1039.83 2971.45,1115.5 2994.5,1191.5C 2987.56,1195.98 2980.56,1200.48 2973.5,1205C 2969.89,1206.15 2966.22,1206.98 2962.5,1207.5C 2940.04,1136.94 2917.87,1066.28 2896,995.5C 2887.51,968.875 2878.35,942.542 2868.5,916.5 Z"/></g>
<g><path style="opacity:1" fill="#ff7854" d="M 3456.5,980.5 C 3463.77,1010.25 3456.1,1035.42 3433.5,1056C 3420.45,1065.63 3405.79,1070.13 3389.5,1069.5C 3358.15,1062.64 3339.98,1043.31 3335,1011.5C 3333.01,970.688 3352.17,946.521 3392.5,939C 3423.75,937.781 3445.08,951.614 3456.5,980.5 Z"/></g>
<g><path style="opacity:1" fill="#ffc9bb" d="M 3456.5,980.5 C 3481.9,984.057 3498.73,998.057 3507,1022.5C 3513.32,1050.68 3506.16,1074.85 3485.5,1095C 3464.02,1111.65 3441.02,1113.98 3416.5,1102C 3403.85,1094.2 3394.85,1083.37 3389.5,1069.5C 3405.79,1070.13 3420.45,1065.63 3433.5,1056C 3456.1,1035.42 3463.77,1010.25 3456.5,980.5 Z"/></g>
<g><path style="opacity:1" fill="#ffdec1" d="M 4701.5,1162.5 C 4711.63,1162.48 4721.63,1161.32 4731.5,1159C 4767.32,1148.28 4801.99,1134.61 4835.5,1118C 4887.43,1093.38 4937.43,1065.71 4985.5,1035C 4982.63,1028.76 4979.63,1022.59 4976.5,1016.5C 4983.41,1012.27 4990.07,1007.61 4996.5,1002.5C 5003.49,1017.13 5010.49,1031.8 5017.5,1046.5C 4993.03,1062.91 4967.7,1078.08 4941.5,1092C 4903.39,1112.06 4864.72,1131.06 4825.5,1149C 4805,1157.75 4784,1165.08 4762.5,1171C 4747.11,1175.51 4731.78,1175.51 4716.5,1171C 4710.82,1169.17 4705.82,1166.33 4701.5,1162.5 Z"/></g>
<g><path style="opacity:1" fill="#ffb067" d="M 5453.5,1068.5 C 5453.5,1074.83 5453.5,1081.17 5453.5,1087.5C 5441.83,1087.17 5430.16,1086.67 5418.5,1086C 5330.81,1085.17 5243.14,1085.34 5155.5,1086.5C 5147.46,1086.26 5139.46,1086.6 5131.5,1087.5C 5131.5,1072.5 5131.5,1057.5 5131.5,1042.5C 5141.17,1043.25 5150.83,1044.08 5160.5,1045C 5246.17,1045.67 5331.83,1045.67 5417.5,1045C 5429.5,1044.08 5441.5,1043.25 5453.5,1042.5C 5453.5,1051.17 5453.5,1059.83 5453.5,1068.5 Z"/></g>
<g><path style="opacity:1" fill="#ff7854" d="M 1604.5,1103.5 C 1616.33,1144.46 1625.16,1186.12 1631,1228.5C 1660.2,1405.05 1688.54,1581.71 1716,1758.5C 1718.4,1781.59 1717.73,1804.59 1714,1827.5C 1707.89,1849.28 1694.39,1864.45 1673.5,1873C 1659.57,1878.25 1645.23,1880.09 1630.5,1878.5C 1616.62,1875.64 1604.78,1868.97 1595,1858.5C 1568.03,1823.18 1552.69,1783.18 1549,1738.5C 1539.51,1679.6 1531.01,1620.6 1523.5,1561.5C 1520.7,1545.99 1519.37,1530.33 1519.5,1514.5C 1402.61,1526.68 1285.78,1539.01 1169,1551.5C 1170.28,1570.5 1171.94,1589.5 1174,1608.5C 1183.1,1681.74 1191.43,1755.07 1199,1828.5C 1200.62,1846.6 1198.62,1864.26 1193,1881.5C 1182.05,1907.9 1162.22,1920.57 1133.5,1919.5C 1109.87,1915.71 1093.37,1902.71 1084,1880.5C 1081.53,1873.63 1079.53,1866.63 1078,1859.5C 1047.28,1680.15 1018.61,1500.48 992,1320.5C 989.29,1282.03 990.623,1243.7 996,1205.5C 1000.19,1182.99 1012.36,1166.49 1032.5,1156C 1069.89,1145.37 1096.23,1157.87 1111.5,1193.5C 1116.64,1212.33 1121.14,1231.33 1125,1250.5C 1133.96,1304.6 1143.46,1358.6 1153.5,1412.5C 1167.52,1411.39 1181.52,1410.05 1195.5,1408.5C 1297.81,1397.67 1400.14,1387 1502.5,1376.5C 1498.29,1307.06 1495.29,1237.56 1493.5,1168C 1491.4,1143.44 1494.57,1119.61 1503,1096.5C 1518.39,1065.58 1542.56,1055.75 1575.5,1067C 1585.55,1071.05 1593.05,1077.88 1598,1087.5C 1600.29,1092.9 1602.46,1098.24 1604.5,1103.5 Z"/></g>
<g><path style="opacity:1" fill="#ffdec1" d="M 5155.5,1086.5 C 5243.14,1085.34 5330.81,1085.17 5418.5,1086C 5430.16,1086.67 5441.83,1087.17 5453.5,1087.5C 5453.5,1081.17 5453.5,1074.83 5453.5,1068.5C 5461.49,1067.79 5469.49,1067.12 5477.5,1066.5C 5477.5,1081.5 5477.5,1096.5 5477.5,1111.5C 5370.17,1110.17 5262.83,1110.17 5155.5,1111.5C 5155.5,1103.17 5155.5,1094.83 5155.5,1086.5 Z"/></g>
<g><path style="opacity:1" fill="#ffc9bb" d="M 1604.5,1103.5 C 1630.5,1104.32 1647,1117.32 1654,1142.5C 1661.27,1166.19 1667.27,1190.19 1672,1214.5C 1703.21,1403.42 1733.88,1592.42 1764,1781.5C 1768.56,1809.85 1768.56,1838.18 1764,1866.5C 1758.41,1889.51 1744.57,1905.35 1722.5,1914C 1681.76,1927.81 1651.09,1915.98 1630.5,1878.5C 1645.23,1880.09 1659.57,1878.25 1673.5,1873C 1694.39,1864.45 1707.89,1849.28 1714,1827.5C 1717.73,1804.59 1718.4,1781.59 1716,1758.5C 1688.54,1581.71 1660.2,1405.05 1631,1228.5C 1625.16,1186.12 1616.33,1144.46 1604.5,1103.5 Z"/></g>
<g><path style="opacity:1" fill="#ffb067" d="M 5990.5,1149.5 C 5985.43,1156.08 5979.76,1162.24 5973.5,1168C 5940.3,1197.71 5904.96,1224.55 5867.5,1248.5C 5866.33,1319.5 5866.17,1390.5 5867,1461.5C 5867.05,1471.27 5867.88,1480.93 5869.5,1490.5C 5861.17,1490.5 5852.83,1490.5 5844.5,1490.5C 5836.17,1490.5 5827.83,1490.5 5819.5,1490.5C 5819.8,1478.17 5820.13,1465.83 5820.5,1453.5C 5821.5,1406.34 5821.83,1359 5821.5,1311.5C 5821.83,1299.48 5821.5,1287.48 5820.5,1275.5C 5819.89,1275.62 5819.56,1275.96 5819.5,1276.5C 5766.97,1303.34 5712.63,1325.67 5656.5,1343.5C 5653.88,1343.78 5651.38,1344.45 5649,1345.5C 5641.04,1332.42 5633.21,1319.25 5625.5,1306C 5740.54,1278.16 5841.87,1225.16 5929.5,1147C 5939.4,1137.77 5948.57,1127.94 5957,1117.5C 5968.37,1128.03 5979.53,1138.7 5990.5,1149.5 Z"/></g>
<g><path style="opacity:1" fill="#ff7854" d="M 2636.5,1203.5 C 2657.32,1237.19 2657.82,1271.19 2638,1305.5C 2628.78,1316.47 2616.95,1320.97 2602.5,1319C 2599.12,1318.55 2595.79,1317.88 2592.5,1317C 2578.03,1311.43 2563.37,1306.43 2548.5,1302C 2521.42,1295.1 2497.42,1300.77 2476.5,1319C 2468.22,1327.1 2460.89,1335.94 2454.5,1345.5C 2469.02,1351.28 2483.68,1356.78 2498.5,1362C 2504.37,1365.1 2510.37,1367.93 2516.5,1370.5C 2537.63,1379.89 2558.96,1389.06 2580.5,1398C 2606.76,1409.46 2631.43,1423.46 2654.5,1440C 2663.86,1447.5 2672.52,1455.66 2680.5,1464.5C 2704.93,1491.54 2717.93,1523.38 2719.5,1560C 2717.58,1601.84 2700.91,1636.51 2669.5,1664C 2650.81,1679.69 2630.14,1692.36 2607.5,1702C 2581.1,1713.43 2553.77,1721.77 2525.5,1727C 2506.51,1730.28 2487.51,1730.28 2468.5,1727C 2446.74,1722.8 2425.74,1716.3 2405.5,1707.5C 2360.99,1690.5 2340.82,1658.17 2345,1610.5C 2349.9,1583.6 2365.07,1565.1 2390.5,1555C 2400.45,1550.93 2410.78,1548.26 2421.5,1547C 2445.16,1546.5 2468.83,1546.33 2492.5,1546.5C 2508.17,1546.5 2523.83,1546.5 2539.5,1546.5C 2539.67,1541.82 2540,1537.15 2540.5,1532.5C 2518.8,1527.55 2497.14,1522.38 2475.5,1517C 2436.66,1504.55 2398.66,1490.05 2361.5,1473.5C 2299.46,1440.07 2274.96,1388.4 2288,1318.5C 2298.83,1275.33 2321,1239.16 2354.5,1210C 2394.07,1176.39 2439.73,1156.06 2491.5,1149C 2524.78,1145.33 2556.78,1149.99 2587.5,1163C 2607.35,1172.36 2623.69,1185.86 2636.5,1203.5 Z"/></g>
<g><path style="opacity:1" fill="#ffdec1" d="M 5990.5,1149.5 C 5998.3,1158.13 6006.64,1166.3 6015.5,1174C 5977.75,1212.11 5936.25,1245.27 5891,1273.5C 5890.33,1346.5 5890.33,1419.5 5891,1492.5C 5891.51,1499.88 5892.34,1507.22 5893.5,1514.5C 5876.83,1514.5 5860.17,1514.5 5843.5,1514.5C 5843.83,1506.5 5844.17,1498.5 5844.5,1490.5C 5852.83,1490.5 5861.17,1490.5 5869.5,1490.5C 5867.88,1480.93 5867.05,1471.27 5867,1461.5C 5866.17,1390.5 5866.33,1319.5 5867.5,1248.5C 5904.96,1224.55 5940.3,1197.71 5973.5,1168C 5979.76,1162.24 5985.43,1156.08 5990.5,1149.5 Z"/></g>
<g><path style="opacity:1" fill="#ff7854" d="M 3490.5,1195.5 C 3500.39,1279.64 3508.55,1363.98 3515,1448.5C 3516.65,1476.06 3514.99,1503.4 3510,1530.5C 3505.43,1549.37 3496.26,1565.54 3482.5,1579C 3466.89,1591.37 3449.22,1595.87 3429.5,1592.5C 3397.68,1583.17 3378.51,1562.17 3372,1529.5C 3369.55,1460.13 3370.55,1390.8 3375,1321.5C 3377.45,1280.49 3380.11,1239.49 3383,1198.5C 3389.2,1171.3 3406.2,1156.63 3434,1154.5C 3463.19,1154.23 3482.02,1167.89 3490.5,1195.5 Z"/></g>
<g><path style="opacity:1" fill="#ffc28b" d="M 5068.5,1180.5 C 5066.52,1194.8 5065.85,1209.46 5066.5,1224.5C 5067.83,1224.5 5069.17,1224.5 5070.5,1224.5C 5069.08,1225.45 5067.41,1225.78 5065.5,1225.5C 5065.5,1210.17 5065.5,1194.83 5065.5,1179.5C 5066.79,1179.26 5067.79,1179.6 5068.5,1180.5 Z"/></g>
<g><path style="opacity:1" fill="#ffb067" d="M 5068.5,1180.5 C 5074.5,1180.91 5080.5,1181.41 5086.5,1182C 5222.17,1182.67 5357.83,1182.67 5493.5,1182C 5499.8,1180.99 5506.13,1180.49 5512.5,1180.5C 5514.48,1194.8 5515.15,1209.46 5514.5,1224.5C 5508.17,1224.5 5501.83,1224.5 5495.5,1224.5C 5437.83,1224.5 5380.17,1224.5 5322.5,1224.5C 5322.82,1268.13 5315.65,1310.46 5301,1351.5C 5288.36,1382.93 5269.19,1409.76 5243.5,1432C 5225.25,1448.58 5205.08,1462.42 5183,1473.5C 5179.21,1471.03 5175.38,1468.69 5171.5,1466.5C 5162.2,1459.18 5152.86,1451.84 5143.5,1444.5C 5174.42,1430.09 5201.92,1410.76 5226,1386.5C 5252.2,1356.42 5267.87,1321.42 5273,1281.5C 5273.97,1272.51 5274.8,1263.51 5275.5,1254.5C 5276.33,1244.66 5277,1234.66 5277.5,1224.5C 5214.83,1224.5 5152.17,1224.5 5089.5,1224.5C 5083.17,1224.5 5076.83,1224.5 5070.5,1224.5C 5069.17,1224.5 5067.83,1224.5 5066.5,1224.5C 5065.85,1209.46 5066.52,1194.8 5068.5,1180.5 Z"/></g>
<g><path style="opacity:1" fill="#ffcea1" d="M 5512.5,1180.5 C 5513.21,1179.6 5514.21,1179.26 5515.5,1179.5C 5515.5,1188.5 5515.5,1197.5 5515.5,1206.5C 5515.5,1212.83 5515.5,1219.17 5515.5,1225.5C 5508.65,1225.82 5501.98,1225.49 5495.5,1224.5C 5501.83,1224.5 5508.17,1224.5 5514.5,1224.5C 5515.15,1209.46 5514.48,1194.8 5512.5,1180.5 Z"/></g>
<g><path style="opacity:1" fill="#ffc9bb" d="M 1111.5,1193.5 C 1129.1,1194.92 1142.93,1202.92 1153,1217.5C 1155.92,1222.34 1158.59,1227.34 1161,1232.5C 1166.92,1251.53 1171.59,1270.86 1175,1290.5C 1181.51,1329.9 1188.34,1369.23 1195.5,1408.5C 1181.52,1410.05 1167.52,1411.39 1153.5,1412.5C 1143.46,1358.6 1133.96,1304.6 1125,1250.5C 1121.14,1231.33 1116.64,1212.33 1111.5,1193.5 Z"/></g>
<g><path style="opacity:1" fill="#ffc9bb" d="M 3490.5,1195.5 C 3517.95,1197.77 3534.78,1212.44 3541,1239.5C 3550.86,1322.31 3558.86,1405.31 3565,1488.5C 3566.16,1511.24 3565.49,1533.91 3563,1556.5C 3560.15,1575.86 3553.15,1593.52 3542,1609.5C 3522.37,1632.38 3498.2,1639.21 3469.5,1630C 3451.73,1622.06 3438.4,1609.56 3429.5,1592.5C 3449.22,1595.87 3466.89,1591.37 3482.5,1579C 3496.26,1565.54 3505.43,1549.37 3510,1530.5C 3514.99,1503.4 3516.65,1476.06 3515,1448.5C 3508.55,1363.98 3500.39,1279.64 3490.5,1195.5 Z"/></g>
<g><path style="opacity:1" fill="#ffc8ba" d="M 2636.5,1203.5 C 2671.6,1218.77 2693.43,1245.11 2702,1282.5C 2704.28,1304.09 2700.28,1324.42 2690,1343.5C 2682.7,1354.65 2672.37,1359.98 2659,1359.5C 2654.11,1359.49 2649.28,1358.99 2644.5,1358C 2628.1,1351.87 2611.43,1346.53 2594.5,1342C 2562.8,1336.17 2536.8,1345.67 2516.5,1370.5C 2510.37,1367.93 2504.37,1365.1 2498.5,1362C 2483.68,1356.78 2469.02,1351.28 2454.5,1345.5C 2460.89,1335.94 2468.22,1327.1 2476.5,1319C 2497.42,1300.77 2521.42,1295.1 2548.5,1302C 2563.37,1306.43 2578.03,1311.43 2592.5,1317C 2595.79,1317.88 2599.12,1318.55 2602.5,1319C 2616.95,1320.97 2628.78,1316.47 2638,1305.5C 2657.82,1271.19 2657.32,1237.19 2636.5,1203.5 Z"/></g>
<g><path style="opacity:1" fill="#ffdec1" d="M 5171.5,1466.5 C 5175.38,1468.69 5179.21,1471.03 5183,1473.5C 5205.08,1462.42 5225.25,1448.58 5243.5,1432C 5269.19,1409.76 5288.36,1382.93 5301,1351.5C 5315.65,1310.46 5322.82,1268.13 5322.5,1224.5C 5380.17,1224.5 5437.83,1224.5 5495.5,1224.5C 5501.98,1225.49 5508.65,1225.82 5515.5,1225.5C 5515.5,1219.17 5515.5,1212.83 5515.5,1206.5C 5523.5,1205.83 5531.5,1205.17 5539.5,1204.5C 5539.5,1219.5 5539.5,1234.5 5539.5,1249.5C 5475.51,1248.58 5411.51,1248.24 5347.5,1248.5C 5346.6,1281.61 5342.43,1314.27 5335,1346.5C 5324.89,1387.56 5304.39,1422.39 5273.5,1451C 5253.28,1469.55 5231.12,1485.38 5207,1498.5C 5193.67,1488.66 5180.5,1478.66 5167.5,1468.5C 5168.58,1467.29 5169.91,1466.63 5171.5,1466.5 Z"/></g>
<g><path style="opacity:1" fill="#ffc9bb" d="M 3194.5,1217.5 C 3211.86,1226.12 3227.03,1237.79 3240,1252.5C 3263.89,1282.26 3283.23,1314.93 3298,1350.5C 3312.27,1385.64 3323.94,1421.64 3333,1458.5C 3336.71,1490.13 3332.04,1520.46 3319,1549.5C 3313.43,1561.65 3307.1,1573.31 3300,1584.5C 3285.04,1605.04 3265.2,1612.54 3240.5,1607C 3223.93,1599.76 3212.43,1587.59 3206,1570.5C 3203.72,1569.88 3201.56,1569.22 3199.5,1568.5C 3218.76,1569.29 3234.6,1562.29 3247,1547.5C 3255.6,1535.31 3262.93,1522.31 3269,1508.5C 3281.68,1479.75 3286.35,1449.75 3283,1418.5C 3276.89,1393.49 3269.55,1368.82 3261,1344.5C 3245.6,1298.35 3223.43,1256.02 3194.5,1217.5 Z"/></g>
<g><path style="opacity:1" fill="#ffdfc2" d="M 5089.5,1224.5 C 5152.17,1224.5 5214.83,1224.5 5277.5,1224.5C 5277,1234.66 5276.33,1244.66 5275.5,1254.5C 5275.5,1252.5 5275.5,1250.5 5275.5,1248.5C 5213.47,1248.18 5151.47,1248.51 5089.5,1249.5C 5089.5,1241.17 5089.5,1232.83 5089.5,1224.5 Z"/></g>
<g><path style="opacity:1" fill="#ffcc9d" d="M 5819.5,1276.5 C 5819.56,1275.96 5819.89,1275.62 5820.5,1275.5C 5821.5,1287.48 5821.83,1299.48 5821.5,1311.5C 5820.83,1299.83 5820.17,1288.17 5819.5,1276.5 Z"/></g>
<g><path style="opacity:1" fill="#ffdec1" d="M 5819.5,1276.5 C 5820.17,1288.17 5820.83,1299.83 5821.5,1311.5C 5821.83,1359 5821.5,1406.34 5820.5,1453.5C 5820.83,1406.5 5820.5,1359.5 5819.5,1312.5C 5772.52,1335.33 5724.02,1354.33 5674,1369.5C 5668.4,1360.62 5662.57,1351.96 5656.5,1343.5C 5712.63,1325.67 5766.97,1303.34 5819.5,1276.5 Z"/></g>
<g><path style="opacity:1" fill="#ffc8ba" d="M 3111.5,1364.5 C 3087.73,1395.06 3073.57,1429.73 3069,1468.5C 3068.24,1514.57 3063.57,1560.24 3055,1605.5C 3047.15,1643.35 3023.98,1664.52 2985.5,1669C 2959.04,1671.52 2936.88,1663.02 2919,1643.5C 2915.05,1638.61 2911.89,1633.27 2909.5,1627.5C 2918.13,1628.58 2926.8,1628.74 2935.5,1628C 2971.83,1624.33 2994.67,1604.83 3004,1569.5C 3012.85,1522.59 3017.85,1475.25 3019,1427.5C 3025.83,1377.68 3046.66,1334.85 3081.5,1299C 3090.01,1310.8 3097.51,1323.64 3104,1337.5C 3107.2,1346.33 3109.7,1355.33 3111.5,1364.5 Z"/></g>
<g><path style="opacity:1" fill="#ff7854" d="M 2196.5,1370.5 C 2222.71,1405 2234.21,1444 2231,1487.5C 2227.61,1573.42 2195.11,1645.92 2133.5,1705C 2096.51,1736.23 2053.68,1753.4 2005,1756.5C 1970.06,1754.02 1935.22,1750.52 1900.5,1746C 1888.13,1743.46 1875.8,1740.79 1863.5,1738C 1854.03,1734.76 1844.69,1731.26 1835.5,1727.5C 1786.62,1701.13 1759.12,1660.13 1753,1604.5C 1747.28,1504.47 1781.45,1420.97 1855.5,1354C 1866.88,1344.29 1878.54,1334.95 1890.5,1326C 1917.14,1308.23 1946.48,1300.23 1978.5,1302C 2012.66,1306.94 2046.99,1309.94 2081.5,1311C 2128.28,1315.05 2166.62,1334.89 2196.5,1370.5 Z"/></g>
<g><path style="opacity:1" fill="#0dc0df" d="M 4386.5,1442.5 C 4390.83,1451.5 4394.33,1460.84 4397,1470.5C 4400.87,1497.95 4389.71,1515.78 4363.5,1524C 4356.89,1525.44 4350.22,1525.77 4343.5,1525C 4334.33,1522.94 4325.33,1520.28 4316.5,1517C 4296.22,1507.86 4276.22,1498.2 4256.5,1488C 4207.96,1464.88 4157.29,1458.21 4104.5,1468C 4065.44,1478.36 4030.44,1496.36 3999.5,1522C 3968.44,1548.38 3940.94,1577.88 3917,1610.5C 3892.21,1650.85 3876.55,1694.52 3870,1741.5C 3866.63,1807.59 3888.46,1863.59 3935.5,1909.5C 3956.96,1930.58 3981.29,1947.75 4008.5,1961C 4066.51,1988.2 4127.51,1999.2 4191.5,1994C 4207.56,1992.86 4223.56,1991.19 4239.5,1989C 4266.21,1984.59 4292.88,1979.92 4319.5,1975C 4335.97,1972.48 4352.31,1973.15 4368.5,1977C 4395.94,1985.95 4413.28,2004.45 4420.5,2032.5C 4426.79,2054.76 4422.96,2075.09 4409,2093.5C 4391.79,2112.33 4372.29,2128.16 4350.5,2141C 4339.55,2146.32 4328.21,2150.65 4316.5,2154C 4238.94,2175.79 4159.94,2183.79 4079.5,2178C 3985.28,2160.71 3901.62,2121.71 3828.5,2061C 3816.99,2050.33 3805.66,2039.49 3794.5,2028.5C 3703.52,1928.27 3674.02,1811.93 3706,1679.5C 3736.84,1555.2 3805.01,1457.36 3910.5,1386C 3944.66,1362.91 3980.99,1343.58 4019.5,1328C 4121.11,1292.73 4217.44,1303.39 4308.5,1360C 4340.9,1381.56 4366.9,1409.06 4386.5,1442.5 Z"/></g>
<g><path style="opacity:1" fill="#0dc0df" d="M 5088.5,1469.5 C 5101.55,1493.29 5110.39,1518.62 5115,1545.5C 5121.43,1596.19 5107.77,1640.53 5074,1678.5C 5064.77,1688.4 5054.94,1697.57 5044.5,1706C 5029.84,1713.66 5015.51,1721.83 5001.5,1730.5C 5016.88,1746.89 5032.88,1762.55 5049.5,1777.5C 5068.43,1795.76 5084.76,1816.1 5098.5,1838.5C 5137.09,1907.45 5141.93,1978.78 5113,2052.5C 5081.38,2124.8 5027.54,2171.3 4951.5,2192C 4891.42,2211.88 4829.76,2220.88 4766.5,2219C 4697.86,2215.56 4634.2,2196.23 4575.5,2161C 4568.96,2155.62 4562.29,2150.45 4555.5,2145.5C 4542.79,2134.29 4531.29,2121.96 4521,2108.5C 4511.95,2090.5 4510.28,2071.83 4516,2052.5C 4525.47,2029.97 4532.13,2006.64 4536,1982.5C 4557.26,1824.71 4579.26,1667.05 4602,1509.5C 4604.08,1497.83 4601.75,1487.16 4595,1477.5C 4589.28,1471.78 4583.61,1466.11 4578,1460.5C 4572.85,1450.09 4573.52,1440.09 4580,1430.5C 4596.55,1416.95 4613.38,1403.79 4630.5,1391C 4643.67,1381.92 4658,1375.25 4673.5,1371C 4750.23,1360.44 4827.23,1357.77 4904.5,1363C 4953.22,1364.68 4997.22,1379.68 5036.5,1408C 5058.06,1425.05 5075.39,1445.55 5088.5,1469.5 Z"/></g>
<g><path style="opacity:1" fill="#ffc8ba" d="M 2196.5,1370.5 C 2243.92,1396.14 2271.75,1435.8 2280,1489.5C 2286.67,1578.81 2261.34,1657.47 2204,1725.5C 2164.49,1768.84 2115.33,1792.84 2056.5,1797.5C 2024.45,1794.78 1992.45,1791.62 1960.5,1788C 1918.54,1784.69 1881.54,1769.69 1849.5,1743C 1844.71,1737.9 1840.04,1732.73 1835.5,1727.5C 1844.69,1731.26 1854.03,1734.76 1863.5,1738C 1875.8,1740.79 1888.13,1743.46 1900.5,1746C 1935.22,1750.52 1970.06,1754.02 2005,1756.5C 2053.68,1753.4 2096.51,1736.23 2133.5,1705C 2195.11,1645.92 2227.61,1573.42 2231,1487.5C 2234.21,1444 2222.71,1405 2196.5,1370.5 Z"/></g>
<g><path style="opacity:1" fill="#ffc8ba" d="M 2062.5,1480.5 C 2055.04,1477.44 2047.37,1474.94 2039.5,1473C 2030.8,1471.19 2023.14,1473.19 2016.5,1479C 2007.07,1488.68 1999.24,1499.52 1993,1511.5C 1982.05,1531.68 1973.05,1552.68 1966,1574.5C 1964.11,1580.01 1963.28,1585.68 1963.5,1591.5C 1969.83,1591.5 1976.17,1591.5 1982.5,1591.5C 1964.93,1593.31 1947.6,1591.48 1930.5,1586C 1915.7,1577.89 1909.87,1565.39 1913,1548.5C 1921.48,1512.39 1936.14,1479.06 1957,1448.5C 1961.26,1442.24 1966.76,1437.4 1973.5,1434C 1980.82,1432.04 1988.15,1432.04 1995.5,1434C 2013.45,1440.48 2030.45,1448.81 2046.5,1459C 2054.4,1464.32 2059.74,1471.49 2062.5,1480.5 Z"/></g>
<g><path style="opacity:1" fill="#9ee6f2" d="M 4386.5,1442.5 C 4410.82,1464.35 4427.66,1491.01 4437,1522.5C 4440.13,1549.77 4428.63,1567.27 4402.5,1575C 4393.45,1575.81 4384.45,1575.47 4375.5,1574C 4366.01,1571.06 4356.68,1567.73 4347.5,1564C 4327.11,1553.47 4306.44,1543.47 4285.5,1534C 4249.03,1518.72 4211.03,1512.05 4171.5,1514C 4131.33,1518.94 4094.67,1532.94 4061.5,1556C 4016.07,1588.76 3978.24,1628.59 3948,1675.5C 3928.32,1711.55 3915.65,1749.88 3910,1790.5C 3906.92,1832.72 3915.42,1872.38 3935.5,1909.5C 3888.46,1863.59 3866.63,1807.59 3870,1741.5C 3876.55,1694.52 3892.21,1650.85 3917,1610.5C 3940.94,1577.88 3968.44,1548.38 3999.5,1522C 4030.44,1496.36 4065.44,1478.36 4104.5,1468C 4157.29,1458.21 4207.96,1464.88 4256.5,1488C 4276.22,1498.2 4296.22,1507.86 4316.5,1517C 4325.33,1520.28 4334.33,1522.94 4343.5,1525C 4350.22,1525.77 4356.89,1525.44 4363.5,1524C 4389.71,1515.78 4400.87,1497.95 4397,1470.5C 4394.33,1460.84 4390.83,1451.5 4386.5,1442.5 Z"/></g>
<g><path style="opacity:1" fill="#ffc8ba" d="M 2680.5,1464.5 C 2715.47,1484.64 2741.63,1512.97 2759,1549.5C 2779.56,1608.17 2767.39,1659 2722.5,1702C 2698.7,1722.25 2672.03,1737.91 2642.5,1749C 2612.38,1761.53 2581.05,1768.36 2548.5,1769.5C 2503.97,1768.38 2462.97,1755.88 2425.5,1732C 2417.14,1725.15 2410.48,1716.98 2405.5,1707.5C 2425.74,1716.3 2446.74,1722.8 2468.5,1727C 2487.51,1730.28 2506.51,1730.28 2525.5,1727C 2553.77,1721.77 2581.1,1713.43 2607.5,1702C 2630.14,1692.36 2650.81,1679.69 2669.5,1664C 2700.91,1636.51 2717.58,1601.84 2719.5,1560C 2717.93,1523.38 2704.93,1491.54 2680.5,1464.5 Z"/></g>
<g><path style="opacity:1" fill="#fffefe" d="M 2062.5,1480.5 C 2063.22,1480.92 2063.72,1481.58 2064,1482.5C 2064.13,1513.44 2056.13,1542.11 2040,1568.5C 2032.9,1577.81 2023.73,1584.31 2012.5,1588C 2002.62,1590.15 1992.62,1591.32 1982.5,1591.5C 1976.17,1591.5 1969.83,1591.5 1963.5,1591.5C 1963.28,1585.68 1964.11,1580.01 1966,1574.5C 1973.05,1552.68 1982.05,1531.68 1993,1511.5C 1999.24,1499.52 2007.07,1488.68 2016.5,1479C 2023.14,1473.19 2030.8,1471.19 2039.5,1473C 2047.37,1474.94 2055.04,1477.44 2062.5,1480.5 Z"/></g>
<g><path style="opacity:1" fill="#9ee6f2" d="M 5088.5,1469.5 C 5126.89,1507.06 5149.39,1552.72 5156,1606.5C 5159.05,1652.66 5145.39,1693 5115,1727.5C 5104.4,1739.11 5092.9,1749.61 5080.5,1759C 5069.44,1764.19 5059.11,1770.35 5049.5,1777.5C 5032.88,1762.55 5016.88,1746.89 5001.5,1730.5C 5015.51,1721.83 5029.84,1713.66 5044.5,1706C 5054.94,1697.57 5064.77,1688.4 5074,1678.5C 5107.77,1640.53 5121.43,1596.19 5115,1545.5C 5110.39,1518.62 5101.55,1493.29 5088.5,1469.5 Z"/></g>
<g><path style="opacity:1" fill="#ffc8ba" d="M 2361.5,1473.5 C 2398.66,1490.05 2436.66,1504.55 2475.5,1517C 2497.14,1522.38 2518.8,1527.55 2540.5,1532.5C 2540,1537.15 2539.67,1541.82 2539.5,1546.5C 2523.83,1546.5 2508.17,1546.5 2492.5,1546.5C 2473.56,1539.46 2454.56,1532.29 2435.5,1525C 2414.56,1516.2 2395.22,1504.87 2377.5,1491C 2371.59,1485.6 2366.26,1479.76 2361.5,1473.5 Z"/></g>
<g><path style="opacity:1" fill="#9de5f1" d="M 4957.5,1553.5 C 4919.46,1538.49 4880.12,1533.66 4839.5,1539C 4822.66,1541.5 4805.99,1544.84 4789.5,1549C 4786.52,1549.5 4783.52,1549.66 4780.5,1549.5C 4778.17,1582.13 4776.5,1614.8 4775.5,1647.5C 4761.14,1649.09 4746.81,1650.75 4732.5,1652.5C 4735.14,1601.5 4737.8,1550.5 4740.5,1499.5C 4759.47,1496 4778.47,1492.5 4797.5,1489C 4844.12,1482.74 4888.79,1489.41 4931.5,1509C 4949.92,1518.36 4958.58,1533.19 4957.5,1553.5 Z"/></g>
<g><path style="opacity:1" fill="#ffc8ba" d="M 1523.5,1561.5 C 1521.92,1560.92 1520.26,1560.59 1518.5,1560.5C 1418.53,1571.23 1318.53,1581.56 1218.5,1591.5C 1228.7,1682.82 1238.87,1774.15 1249,1865.5C 1250.63,1882.76 1249.3,1899.76 1245,1916.5C 1232.58,1951.47 1208.08,1965.3 1171.5,1958C 1153.28,1950.61 1140.61,1937.78 1133.5,1919.5C 1162.22,1920.57 1182.05,1907.9 1193,1881.5C 1198.62,1864.26 1200.62,1846.6 1199,1828.5C 1191.43,1755.07 1183.1,1681.74 1174,1608.5C 1171.94,1589.5 1170.28,1570.5 1169,1551.5C 1285.78,1539.01 1402.61,1526.68 1519.5,1514.5C 1519.37,1530.33 1520.7,1545.99 1523.5,1561.5 Z"/></g>
<g><path style="opacity:1" fill="#fefefe" d="M 4957.5,1553.5 C 4951.39,1580.57 4936.39,1601.07 4912.5,1615C 4894.53,1624.77 4875.53,1631.77 4855.5,1636C 4829.06,1641.46 4802.4,1645.3 4775.5,1647.5C 4776.5,1614.8 4778.17,1582.13 4780.5,1549.5C 4783.52,1549.66 4786.52,1549.5 4789.5,1549C 4805.99,1544.84 4822.66,1541.5 4839.5,1539C 4880.12,1533.66 4919.46,1538.49 4957.5,1553.5 Z"/></g>
<g><path style="opacity:1" fill="#0ec0df" d="M 5862.5,1639.5 C 5870.25,1673.68 5860.58,1701.84 5833.5,1724C 5810.74,1739.09 5785.74,1744.75 5758.5,1741C 5699.93,1733.07 5641.26,1725.9 5582.5,1719.5C 5586.44,1846.84 5586.27,1974.17 5582,2101.5C 5580.48,2124.51 5578.81,2147.51 5577,2170.5C 5571.87,2200.58 5560.87,2228.24 5544,2253.5C 5522.59,2277.15 5496.09,2285.99 5464.5,2280C 5456.44,2278.57 5448.77,2276.07 5441.5,2272.5C 5424.71,2263.88 5412.55,2250.88 5405,2233.5C 5393.35,2196.66 5389.68,2158.99 5394,2120.5C 5409.22,1998.32 5425.72,1876.32 5443.5,1754.5C 5445.79,1741.28 5447.12,1727.94 5447.5,1714.5C 5405.72,1705.58 5364.05,1696.08 5322.5,1686C 5312.61,1683.43 5303.28,1679.6 5294.5,1674.5C 5254.63,1651.39 5244.13,1618.73 5263,1576.5C 5272.3,1562.88 5284.8,1553.38 5300.5,1548C 5309.6,1544.72 5318.93,1542.39 5328.5,1541C 5415.84,1542.29 5503.17,1543.96 5590.5,1546C 5639.18,1548.31 5687.51,1553.64 5735.5,1562C 5761.42,1566.54 5786.76,1573.21 5811.5,1582C 5836.5,1594.16 5853.5,1613.32 5862.5,1639.5 Z"/></g>
<g><path style="opacity:1" fill="#9ee6f2" d="M 5862.5,1639.5 C 5904.44,1667.91 5914.94,1705.24 5894,1751.5C 5874.99,1778.84 5848.66,1792.51 5815,1792.5C 5803.81,1791.92 5792.65,1791.09 5781.5,1790C 5728.75,1782.15 5675.91,1775.31 5623,1769.5C 5624.23,1875.83 5624.56,1982.16 5624,2088.5C 5622.66,2130.56 5620.33,2172.56 5617,2214.5C 5613.14,2248.21 5601.47,2278.88 5582,2306.5C 5563.1,2326.25 5539.93,2334.75 5512.5,2332C 5481.09,2328.56 5458.59,2312.73 5445,2284.5C 5443.52,2280.57 5442.36,2276.57 5441.5,2272.5C 5448.77,2276.07 5456.44,2278.57 5464.5,2280C 5496.09,2285.99 5522.59,2277.15 5544,2253.5C 5560.87,2228.24 5571.87,2200.58 5577,2170.5C 5578.81,2147.51 5580.48,2124.51 5582,2101.5C 5586.27,1974.17 5586.44,1846.84 5582.5,1719.5C 5641.26,1725.9 5699.93,1733.07 5758.5,1741C 5785.74,1744.75 5810.74,1739.09 5833.5,1724C 5860.58,1701.84 5870.25,1673.68 5862.5,1639.5 Z"/></g>
<g><path style="opacity:1" fill="#9ee6f2" d="M 5294.5,1674.5 C 5303.28,1679.6 5312.61,1683.43 5322.5,1686C 5364.05,1696.08 5405.72,1705.58 5447.5,1714.5C 5447.12,1727.94 5445.79,1741.28 5443.5,1754.5C 5416.72,1749.31 5390.05,1743.47 5363.5,1737C 5341.48,1731.08 5322.64,1719.91 5307,1703.5C 5300.22,1694.99 5296.05,1685.33 5294.5,1674.5 Z"/></g>
<g><path style="opacity:1" fill="#9de5f1" d="M 4964.5,1903.5 C 4942.03,1885.77 4916.69,1873.6 4888.5,1867C 4871.97,1863.68 4855.3,1861.35 4838.5,1860C 4818.64,1859.18 4798.81,1858.01 4779,1856.5C 4770.79,1857.44 4764.46,1861.44 4760,1868.5C 4756.81,1873.55 4754.14,1878.89 4752,1884.5C 4747.92,1912.11 4744.26,1939.78 4741,1967.5C 4739.27,1995.62 4736.43,2023.62 4732.5,2051.5C 4721.99,2050.83 4712.32,2047.66 4703.5,2042C 4694.65,2034.62 4690.31,2025.12 4690.5,2013.5C 4696.11,1982.07 4699.61,1950.4 4701,1918.5C 4704.09,1891.42 4707.76,1864.42 4712,1837.5C 4714.53,1825.32 4720.69,1815.49 4730.5,1808C 4734.22,1806.91 4738.05,1806.41 4742,1806.5C 4768.24,1807.35 4794.41,1809.19 4820.5,1812C 4872.65,1816.66 4915.49,1838.82 4949,1878.5C 4954.79,1886.45 4959.95,1894.79 4964.5,1903.5 Z"/></g>
<g><path style="opacity:1" fill="#9ee6f2" d="M 5098.5,1838.5 C 5153.1,1893.45 5176.94,1959.79 5170,2037.5C 5158.56,2117.21 5118.73,2178.04 5050.5,2220C 4979.46,2252.01 4904.96,2268.51 4827,2269.5C 4756.73,2269.41 4690.56,2252.91 4628.5,2220C 4606,2206.18 4585.83,2189.35 4568,2169.5C 4561.99,2162.49 4557.83,2154.49 4555.5,2145.5C 4562.29,2150.45 4568.96,2155.62 4575.5,2161C 4634.2,2196.23 4697.86,2215.56 4766.5,2219C 4829.76,2220.88 4891.42,2211.88 4951.5,2192C 5027.54,2171.3 5081.38,2124.8 5113,2052.5C 5141.93,1978.78 5137.09,1907.45 5098.5,1838.5 Z"/></g>
<g><path style="opacity:1" fill="#fefefe" d="M 4964.5,1903.5 C 4976.47,1929.64 4977.64,1956.3 4968,1983.5C 4955.83,2008.33 4936.66,2025.49 4910.5,2035C 4852.43,2055.93 4793.1,2061.43 4732.5,2051.5C 4736.43,2023.62 4739.27,1995.62 4741,1967.5C 4744.26,1939.78 4747.92,1912.11 4752,1884.5C 4754.14,1878.89 4756.81,1873.55 4760,1868.5C 4764.46,1861.44 4770.79,1857.44 4779,1856.5C 4798.81,1858.01 4818.64,1859.18 4838.5,1860C 4855.3,1861.35 4871.97,1863.68 4888.5,1867C 4916.69,1873.6 4942.03,1885.77 4964.5,1903.5 Z"/></g>
<g><path style="opacity:1" fill="#ffb067" d="M 3073.5,2066.5 C 3059.86,2087.1 3046.19,2107.77 3032.5,2128.5C 2976.15,2090.99 2918.82,2054.99 2860.5,2020.5C 2842.37,2010.6 2824.37,2000.43 2806.5,1990C 2821.04,1966.42 2835.71,1942.92 2850.5,1919.5C 2928.41,1962.02 3004.24,2007.69 3078,2056.5C 3076.85,2059.87 3075.35,2063.21 3073.5,2066.5 Z"/></g>
<g><path style="opacity:1" fill="#ffdec1" d="M 2860.5,2020.5 C 2918.82,2054.99 2976.15,2090.99 3032.5,2128.5C 3046.19,2107.77 3059.86,2087.1 3073.5,2066.5C 3090.82,2078.14 3108.15,2089.81 3125.5,2101.5C 3110.4,2125.37 3095.07,2149.04 3079.5,2172.5C 3006.34,2123.07 2931,2076.9 2853.5,2034C 2856.52,2029.8 2858.85,2025.3 2860.5,2020.5 Z"/></g>
<g><path style="opacity:1" fill="#9ee6f2" d="M 3794.5,2028.5 C 3805.66,2039.49 3816.99,2050.33 3828.5,2061C 3901.62,2121.71 3985.28,2160.71 4079.5,2178C 4159.94,2183.79 4238.94,2175.79 4316.5,2154C 4328.21,2150.65 4339.55,2146.32 4350.5,2141C 4372.29,2128.16 4391.79,2112.33 4409,2093.5C 4422.96,2075.09 4426.79,2054.76 4420.5,2032.5C 4440.38,2043.24 4453.55,2059.57 4460,2081.5C 4466.48,2105.99 4461.81,2127.99 4446,2147.5C 4425.9,2168.63 4402.73,2185.46 4376.5,2198C 4292.88,2224.66 4207.21,2234.99 4119.5,2229C 4042.76,2214.28 3972.09,2185.28 3907.5,2142C 3862.94,2110.94 3825.27,2073.1 3794.5,2028.5 Z"/></g>
<g><path style="opacity:1" fill="#ffb067" d="M 1871.5,2205.5 C 1866.34,2216.79 1861.84,2228.46 1858,2240.5C 1851.52,2262.77 1845.35,2285.1 1839.5,2307.5C 1851.88,2310.68 1864.21,2314.01 1876.5,2317.5C 1931.42,2333.48 1986.42,2349.31 2041.5,2365C 2054.5,2368 2067.5,2371 2080.5,2374C 2091.04,2376.48 2101.71,2377.98 2112.5,2378.5C 2108.52,2391.73 2104.86,2405.07 2101.5,2418.5C 2094.69,2441.06 2087.85,2463.73 2081,2486.5C 2057.03,2478.13 2032.86,2470.3 2008.5,2463C 1943.02,2444.4 1877.52,2425.57 1812,2406.5C 1810.26,2407.68 1809.26,2409.35 1809,2411.5C 1773.35,2535.79 1737.68,2660.12 1702,2784.5C 1690.1,2829.37 1660.93,2849.54 1614.5,2845C 1573.33,2835.22 1532.99,2822.72 1493.5,2807.5C 1483.45,2803.7 1473.45,2799.7 1463.5,2795.5C 1463.17,2794 1462.83,2792.5 1462.5,2791C 1468.58,2757.84 1474.58,2724.67 1480.5,2691.5C 1511.02,2706.42 1542.68,2718.58 1575.5,2728C 1585.74,2730.15 1594.24,2727.32 1601,2719.5C 1603.27,2715.29 1605.27,2710.95 1607,2706.5C 1635.61,2608.18 1664.11,2509.85 1692.5,2411.5C 1695.73,2399.99 1699.06,2388.49 1702.5,2377C 1702.36,2376.23 1702.02,2375.56 1701.5,2375C 1618.27,2350.59 1534.94,2326.76 1451.5,2303.5C 1439.62,2300.66 1427.62,2298.32 1415.5,2296.5C 1424.83,2259.84 1435.17,2223.5 1446.5,2187.5C 1468.17,2196.83 1490.17,2205.33 1512.5,2213C 1585.03,2233.85 1657.53,2254.68 1730,2275.5C 1746.49,2230.88 1757.99,2184.88 1764.5,2137.5C 1805.06,2148.39 1845.39,2160.06 1885.5,2172.5C 1879.99,2183.19 1875.32,2194.19 1871.5,2205.5 Z"/></g>
<g><path style="opacity:1" fill="#ffb067" d="M 3478.5,2198.5 C 3481.81,2205.11 3485.64,2211.44 3490,2217.5C 3491.3,2219.36 3491.63,2221.36 3491,2223.5C 3429.28,2322.88 3353.78,2411.05 3264.5,2488C 3205.69,2539.15 3142.69,2584.48 3075.5,2624C 2984.08,2673.19 2888.41,2711.69 2788.5,2739.5C 2783.1,2740.52 2777.77,2741.85 2772.5,2743.5C 2754.74,2716.72 2737.74,2689.39 2721.5,2661.5C 2808.85,2642.44 2893.18,2614.27 2974.5,2577C 3120.19,2505 3244.35,2405.84 3347,2279.5C 3381.56,2235.41 3412.4,2188.74 3439.5,2139.5C 3452.76,2159.02 3465.76,2178.69 3478.5,2198.5 Z"/></g>
<g><path style="opacity:1" fill="#ffb067" d="M 2928.5,2298.5 C 2915.43,2319.64 2902.09,2340.64 2888.5,2361.5C 2832.3,2324.56 2774.63,2289.89 2715.5,2257.5C 2696.99,2247.41 2678.32,2237.58 2659.5,2228C 2673.64,2204.22 2688.14,2180.72 2703,2157.5C 2781.76,2197.53 2858.43,2240.87 2933,2287.5C 2933.67,2288.5 2933.67,2289.5 2933,2290.5C 2931.22,2293.06 2929.72,2295.73 2928.5,2298.5 Z"/></g>
<g><path style="opacity:1" fill="#ffdec1" d="M 2788.5,2739.5 C 2888.41,2711.69 2984.08,2673.19 3075.5,2624C 3142.69,2584.48 3205.69,2539.15 3264.5,2488C 3353.78,2411.05 3429.28,2322.88 3491,2223.5C 3491.63,2221.36 3491.3,2219.36 3490,2217.5C 3485.64,2211.44 3481.81,2205.11 3478.5,2198.5C 3481.05,2193.06 3483.89,2187.73 3487,2182.5C 3504.91,2210.35 3522.24,2238.35 3539,2266.5C 3483.38,2356.36 3416.21,2437.2 3337.5,2509C 3279.87,2560.98 3218.54,2607.98 3153.5,2650C 3048.72,2711.33 2937.39,2757.16 2819.5,2787.5C 2818.52,2787.02 2817.69,2786.36 2817,2785.5C 2807.73,2769.93 2798.23,2754.6 2788.5,2739.5 Z"/></g>
<g><path style="opacity:1" fill="#ffdec1" d="M 1871.5,2205.5 C 1872.06,2206.79 1873.06,2207.62 1874.5,2208C 1887.11,2211.15 1899.44,2214.98 1911.5,2219.5C 1895.46,2250.63 1883.79,2283.3 1876.5,2317.5C 1864.21,2314.01 1851.88,2310.68 1839.5,2307.5C 1845.35,2285.1 1851.52,2262.77 1858,2240.5C 1861.84,2228.46 1866.34,2216.79 1871.5,2205.5 Z"/></g>
<g><path style="opacity:1" fill="#ff7854" d="M 5832.5,2241.5 C 5834.33,2244.14 5835.49,2247.14 5836,2250.5C 5857.84,2343.54 5879.84,2436.54 5902,2529.5C 5980.88,2589.38 6060.05,2648.88 6139.5,2708C 6043.04,2730.49 5946.71,2753.49 5850.5,2777C 5791.21,2855.74 5732.05,2934.58 5673,3013.5C 5650,2917.54 5627,2821.54 5604,2725.5C 5525.28,2665.94 5446.45,2606.61 5367.5,2547.5C 5458.01,2525.37 5548.67,2503.87 5639.5,2483C 5644.94,2481.64 5650.27,2479.97 5655.5,2478C 5678.38,2448.78 5700.88,2419.28 5723,2389.5C 5759.74,2340.27 5796.24,2290.94 5832.5,2241.5 Z"/></g>
<g><path style="opacity:1" fill="#ffdec1" d="M 2715.5,2257.5 C 2774.63,2289.89 2832.3,2324.56 2888.5,2361.5C 2902.09,2340.64 2915.43,2319.64 2928.5,2298.5C 2943.1,2308.48 2958.1,2317.98 2973.5,2327C 2976.19,2328.7 2978.52,2330.7 2980.5,2333C 2966.12,2357.61 2951.12,2381.77 2935.5,2405.5C 2862.59,2357.19 2786.92,2313.19 2708.5,2273.5C 2707.42,2272.64 2707.25,2271.64 2708,2270.5C 2710.51,2266.14 2713.01,2261.81 2715.5,2257.5 Z"/></g>
<g><path style="opacity:1" fill="#ffdfc2" d="M 1451.5,2303.5 C 1534.94,2326.76 1618.27,2350.59 1701.5,2375C 1702.02,2375.56 1702.36,2376.23 1702.5,2377C 1699.06,2388.49 1695.73,2399.99 1692.5,2411.5C 1634.05,2394.96 1575.72,2378.13 1517.5,2361C 1492.7,2354.22 1467.7,2348.22 1442.5,2343C 1441.42,2341.27 1441.26,2339.44 1442,2337.5C 1445.48,2326.24 1448.65,2314.9 1451.5,2303.5 Z"/></g>
<g><path style="opacity:1" fill="#ffb067" d="M 1579.5,2482.5 C 1514.62,2544.9 1444.95,2601.06 1370.5,2651C 1367.84,2653.1 1365.67,2652.6 1364,2649.5C 1352.64,2635.31 1341.14,2621.31 1329.5,2607.5C 1318.38,2593.87 1307.04,2580.37 1295.5,2567C 1375.19,2522.35 1446.52,2466.68 1509.5,2400C 1511.63,2400.4 1513.63,2401.4 1515.5,2403C 1540.83,2425 1566.17,2447 1591.5,2469C 1587.66,2473.67 1583.66,2478.17 1579.5,2482.5 Z"/></g>
<g><path style="opacity:1" fill="#ffdec1" d="M 2101.5,2418.5 C 2101.61,2419.12 2101.94,2419.62 2102.5,2420C 2114.57,2421.86 2126.57,2424.02 2138.5,2426.5C 2128.01,2461.45 2117.68,2496.45 2107.5,2531.5C 2018.06,2505.09 1928.22,2479.09 1838,2453.5C 1837.23,2453.64 1836.56,2453.98 1836,2454.5C 1798.82,2584.21 1761.49,2713.88 1724,2843.5C 1713.54,2872.47 1693.04,2888.64 1662.5,2892C 1653.13,2892.73 1643.8,2892.4 1634.5,2891C 1583.97,2878.21 1534.97,2861.38 1487.5,2840.5C 1489.69,2829.54 1491.69,2818.54 1493.5,2807.5C 1532.99,2822.72 1573.33,2835.22 1614.5,2845C 1660.93,2849.54 1690.1,2829.37 1702,2784.5C 1737.68,2660.12 1773.35,2535.79 1809,2411.5C 1809.26,2409.35 1810.26,2407.68 1812,2406.5C 1877.52,2425.57 1943.02,2444.4 2008.5,2463C 2032.86,2470.3 2057.03,2478.13 2081,2486.5C 2087.85,2463.73 2094.69,2441.06 2101.5,2418.5 Z"/></g>
<g><path style="opacity:1" fill="#ffdec1" d="M 1579.5,2482.5 C 1591.91,2493.88 1604.57,2505.05 1617.5,2516C 1548.9,2585.06 1474.23,2646.22 1393.5,2699.5C 1369.51,2671.34 1345.67,2643 1322,2614.5C 1321.31,2613.67 1321.48,2613 1322.5,2612.5C 1325.5,2611.52 1327.83,2609.86 1329.5,2607.5C 1341.14,2621.31 1352.64,2635.31 1364,2649.5C 1365.67,2652.6 1367.84,2653.1 1370.5,2651C 1444.95,2601.06 1514.62,2544.9 1579.5,2482.5 Z"/></g>
<g><path style="opacity:1" fill="#ffb067" d="M 1975.5,2572.5 C 1998.39,2640.55 2018.39,2709.38 2035.5,2779C 2034.32,2780.74 2032.65,2781.74 2030.5,2782C 1999.94,2788.42 1969.61,2795.25 1939.5,2802.5C 1934.84,2803.5 1930.17,2804.5 1925.5,2805.5C 1924.81,2804.97 1924.31,2804.31 1924,2803.5C 1909.6,2732.23 1891.6,2661.9 1870,2592.5C 1865.03,2577.92 1859.86,2563.42 1854.5,2549C 1855.68,2547.26 1857.35,2546.26 1859.5,2546C 1891.57,2539.15 1923.57,2531.99 1955.5,2524.5C 1956.65,2524.82 1957.48,2525.48 1958,2526.5C 1964.16,2541.82 1969.99,2557.15 1975.5,2572.5 Z"/></g>
<g><path style="opacity:1" fill="#ffdfc2" d="M 1939.5,2802.5 C 1969.61,2795.25 1999.94,2788.42 2030.5,2782C 2032.65,2781.74 2034.32,2780.74 2035.5,2779C 2018.39,2709.38 1998.39,2640.55 1975.5,2572.5C 1978.21,2571.55 1980.87,2571.55 1983.5,2572.5C 2015.06,2655.68 2041.06,2740.51 2061.5,2827C 2024.63,2835.93 1987.63,2844.43 1950.5,2852.5C 1946.58,2835.88 1942.91,2819.22 1939.5,2802.5 Z"/></g>
<g><path style="opacity:1" fill="#11c0df" d="M 3621.5,2973.5 C 3636.97,3000.43 3631.97,3022.76 3606.5,3040.5C 3610.28,3044.62 3614.61,3047.95 3619.5,3050.5C 3625.17,3055.5 3630.5,3060.83 3635.5,3066.5C 3651.86,3094.33 3649.7,3120.66 3629,3145.5C 3610.68,3159.84 3589.85,3168.34 3566.5,3171C 3545.3,3173.78 3525.3,3170.28 3506.5,3160.5C 3500.8,3156.97 3496.3,3152.3 3493,3146.5C 3492.18,3139.36 3492.85,3132.36 3495,3125.5C 3496.34,3081.17 3497.01,3036.84 3497,2992.5C 3494.65,2989.15 3491.98,2986.15 3489,2983.5C 3488.38,2980.96 3488.88,2978.63 3490.5,2976.5C 3494.99,2972.52 3499.32,2968.35 3503.5,2964C 3505.67,2962.41 3508,2961.08 3510.5,2960C 3535.01,2952.81 3560.01,2949.81 3585.5,2951C 3600.77,2953.47 3612.77,2960.97 3621.5,2973.5 Z"/></g>
<g><path style="opacity:1" fill="#12c0df" d="M 4196.5,2971.5 C 4197.64,3026.49 4197.8,3081.49 4197,3136.5C 4195.47,3152.02 4186.97,3158.52 4171.5,3156C 4168.74,3155.45 4166.07,3154.62 4163.5,3153.5C 4156.8,3155.57 4150.14,3157.73 4143.5,3160C 4126.72,3163.89 4111.05,3161.39 4096.5,3152.5C 4077.48,3136.63 4069.98,3116.3 4074,3091.5C 4083.75,3041.87 4112.59,3025.21 4160.5,3041.5C 4161.9,3018.5 4163.4,2995.5 4165,2972.5C 4171.57,2954.99 4181.23,2952.99 4194,2966.5C 4194.76,2968.31 4195.59,2969.98 4196.5,2971.5 Z"/></g>
<g><path style="opacity:1" fill="#12c0df" d="M 2146.5,2987.5 C 2152.45,2994.66 2151.78,3001.16 2144.5,3007C 2139.92,3008.48 2135.26,3008.81 2130.5,3008C 2118.03,3002.47 2105.03,2999.3 2091.5,2998.5C 2071.76,3000.62 2055.92,3009.62 2044,3025.5C 2028.04,3044.01 2022.04,3065.35 2026,3089.5C 2028.93,3101.03 2035.09,3110.36 2044.5,3117.5C 2065.19,3132.77 2088.19,3137.6 2113.5,3132C 2126.93,3128.41 2140.43,3125.24 2154,3122.5C 2163.14,3122.98 2169.64,3127.31 2173.5,3135.5C 2174.97,3140.66 2174.47,3145.66 2172,3150.5C 2162.77,3163.54 2150.27,3171.71 2134.5,3175C 2091.74,3188.48 2052.4,3181.98 2016.5,3155.5C 1989.13,3133.93 1976.96,3105.59 1980,3070.5C 1986.68,3021.17 2012.51,2986 2057.5,2965C 2084.37,2955.69 2109.7,2958.69 2133.5,2974C 2138.71,2977.71 2143.04,2982.21 2146.5,2987.5 Z"/></g>
<g><path style="opacity:1" fill="#9ee6f2" d="M 4196.5,2971.5 C 4202.58,2973.76 4206.42,2978.09 4208,2984.5C 4208.67,3040.17 4208.67,3095.83 4208,3151.5C 4204.26,3165.77 4195.09,3170.94 4180.5,3167C 4178.42,3166.13 4176.25,3165.63 4174,3165.5C 4165.3,3168.4 4156.47,3170.9 4147.5,3173C 4126.74,3175.25 4109.74,3168.42 4096.5,3152.5C 4111.05,3161.39 4126.72,3163.89 4143.5,3160C 4150.14,3157.73 4156.8,3155.57 4163.5,3153.5C 4166.07,3154.62 4168.74,3155.45 4171.5,3156C 4186.97,3158.52 4195.47,3152.02 4197,3136.5C 4197.8,3081.49 4197.64,3026.49 4196.5,2971.5 Z"/></g>
<g><path style="opacity:1" fill="#9ee5f2" d="M 3621.5,2973.5 C 3642.08,2990.08 3646.92,3010.42 3636,3034.5C 3631.95,3041.38 3626.45,3046.71 3619.5,3050.5C 3614.61,3047.95 3610.28,3044.62 3606.5,3040.5C 3631.97,3022.76 3636.97,3000.43 3621.5,2973.5 Z"/></g>
<g><path style="opacity:1" fill="#12c0df" d="M 4448.5,2992.5 C 4450.74,3007.51 4444.41,3016.68 4429.5,3020C 4412.84,3020.5 4396.17,3020.67 4379.5,3020.5C 4382.99,3045.11 4386.16,3069.78 4389,3094.5C 4391,3109.78 4391.66,3125.12 4391,3140.5C 4389.91,3148.12 4387.07,3154.96 4382.5,3161C 4375.78,3165.09 4368.45,3166.59 4360.5,3165.5C 4352.82,3161.52 4347.98,3155.19 4346,3146.5C 4345.15,3142.53 4344.48,3138.53 4344,3134.5C 4343.43,3104.83 4343.59,3075.16 4344.5,3045.5C 4345.83,3038.1 4345.83,3030.6 4344.5,3023C 4334.14,3022.24 4323.81,3021.24 4313.5,3020C 4310.34,3019.6 4307.34,3018.77 4304.5,3017.5C 4294.31,3013.11 4290.47,3005.44 4293,2994.5C 4297.15,2988 4302.99,2983.84 4310.5,2982C 4331.17,2980 4351.83,2978 4372.5,2976C 4392.57,2974.93 4412.57,2975.6 4432.5,2978C 4439.9,2980.57 4445.24,2985.4 4448.5,2992.5 Z"/></g>
<g><path style="opacity:1" fill="#9de5f1" d="M 3589.5,2997.5 C 3574.43,2993.91 3559.76,2995.24 3545.5,3001.5C 3544.69,3009.81 3544.69,3018.15 3545.5,3026.5C 3542.3,3027.79 3538.97,3028.45 3535.5,3028.5C 3534.8,3019.01 3534.13,3009.51 3533.5,3000C 3533.52,2996.58 3533.85,2993.25 3534.5,2990C 3551.39,2981.88 3568.39,2981.55 3585.5,2989C 3588.01,2991.33 3589.34,2994.16 3589.5,2997.5 Z"/></g>
<g><path style="opacity:1" fill="#9ee6f2" d="M 2146.5,2987.5 C 2152.53,2992.04 2157.37,2997.71 2161,3004.5C 2162.15,3016.53 2156.65,3021.7 2144.5,3020C 2135.82,3017.33 2127.16,3014.66 2118.5,3012C 2099.73,3007.53 2083.06,3011.53 2068.5,3024C 2050.89,3038.94 2040.06,3057.77 2036,3080.5C 2034.61,3093.83 2037.45,3106.17 2044.5,3117.5C 2035.09,3110.36 2028.93,3101.03 2026,3089.5C 2022.04,3065.35 2028.04,3044.01 2044,3025.5C 2055.92,3009.62 2071.76,3000.62 2091.5,2998.5C 2105.03,2999.3 2118.03,3002.47 2130.5,3008C 2135.26,3008.81 2139.92,3008.48 2144.5,3007C 2151.78,3001.16 2152.45,2994.66 2146.5,2987.5 Z"/></g>
<g><path style="opacity:1" fill="#12c0df" d="M 3080.5,3004.5 C 3081.17,3014.48 3081.67,3024.48 3082,3034.5C 3082.5,3036.33 3083.67,3037.5 3085.5,3038C 3088.15,3038.5 3090.81,3038.66 3093.5,3038.5C 3100.74,3038.89 3107.74,3040.73 3114.5,3044C 3117.78,3046.77 3120.45,3049.94 3122.5,3053.5C 3124.09,3066.84 3118.43,3075 3105.5,3078C 3097.51,3078.5 3089.51,3078.67 3081.5,3078.5C 3081.65,3090.36 3083.15,3102.02 3086,3113.5C 3089.29,3118.16 3093.46,3119.5 3098.5,3117.5C 3106.21,3116 3113.88,3116.17 3121.5,3118C 3125.21,3120.86 3127.88,3124.36 3129.5,3128.5C 3129.56,3139.95 3124.23,3147.78 3113.5,3152C 3098.41,3157.35 3083.74,3156.51 3069.5,3149.5C 3053.17,3137.84 3045,3121.84 3045,3101.5C 3044.5,3093.17 3044.33,3084.84 3044.5,3076.5C 3044.35,3072.86 3042.68,3070.19 3039.5,3068.5C 3027.21,3063.94 3024.71,3056.27 3032,3045.5C 3037.15,3041.26 3042.49,3037.26 3048,3033.5C 3049.83,3024.23 3051.49,3014.89 3053,3005.5C 3057.42,2991.61 3065.42,2988.94 3077,2997.5C 3078.21,2999.93 3079.38,3002.26 3080.5,3004.5 Z"/></g>
<g><path style="opacity:1" fill="#9ee6f2" d="M 4448.5,2992.5 C 4458.45,2997.4 4462.28,3005.4 4460,3016.5C 4457,3024.16 4451.5,3029 4443.5,3031C 4426.17,3031.5 4408.84,3031.67 4391.5,3031.5C 4395.03,3061.81 4398.53,3092.14 4402,3122.5C 4402.67,3133.5 4402.67,3144.5 4402,3155.5C 4396.89,3176.48 4384.72,3182.14 4365.5,3172.5C 4363.42,3170.43 4361.75,3168.09 4360.5,3165.5C 4368.45,3166.59 4375.78,3165.09 4382.5,3161C 4387.07,3154.96 4389.91,3148.12 4391,3140.5C 4391.66,3125.12 4391,3109.78 4389,3094.5C 4386.16,3069.78 4382.99,3045.11 4379.5,3020.5C 4396.17,3020.67 4412.84,3020.5 4429.5,3020C 4444.41,3016.68 4450.74,3007.51 4448.5,2992.5 Z"/></g>
<g><path style="opacity:1" fill="#13c0df" d="M 4780.5,3003.5 C 4782.81,3013.98 4783.97,3024.65 4784,3035.5C 4784.5,3036.67 4785.33,3037.5 4786.5,3038C 4789.15,3038.5 4791.81,3038.66 4794.5,3038.5C 4803.45,3038.6 4811.62,3041.26 4819,3046.5C 4820.52,3048.9 4822.02,3051.23 4823.5,3053.5C 4825.55,3066.59 4820.21,3074.75 4807.5,3078C 4799.17,3078.5 4790.84,3078.67 4782.5,3078.5C 4783.34,3089.92 4784.84,3101.25 4787,3112.5C 4789.92,3117.63 4794.09,3119.3 4799.5,3117.5C 4807.21,3116 4814.88,3116.17 4822.5,3118C 4826.09,3120.76 4828.75,3124.26 4830.5,3128.5C 4831.06,3137.14 4827.72,3143.97 4820.5,3149C 4804.41,3157.12 4788.08,3157.62 4771.5,3150.5C 4757.87,3141.02 4749.7,3128.02 4747,3111.5C 4746.2,3099.51 4745.53,3087.51 4745,3075.5C 4742.89,3073.62 4741.56,3071.29 4741,3068.5C 4728.54,3063.5 4726.2,3055.5 4734,3044.5C 4738.25,3041.29 4742.75,3038.46 4747.5,3036C 4748.46,3034.58 4749.29,3033.08 4750,3031.5C 4751.13,3024.86 4752.13,3018.19 4753,3011.5C 4753.34,3003.43 4756.84,2997.27 4763.5,2993C 4772.61,2990.95 4778.28,2994.45 4780.5,3003.5 Z"/></g>
<g><path style="opacity:1" fill="#fdfefe" d="M 3589.5,2997.5 C 3585.6,3010.56 3576.93,3018.73 3563.5,3022C 3557.56,3023.82 3551.56,3025.32 3545.5,3026.5C 3544.69,3018.15 3544.69,3009.81 3545.5,3001.5C 3559.76,2995.24 3574.43,2993.91 3589.5,2997.5 Z"/></g>
<g><path style="opacity:1" fill="#a0e6f2" d="M 3080.5,3004.5 C 3085.95,3005.69 3089.45,3009.03 3091,3014.5C 3092.93,3022.38 3093.76,3030.38 3093.5,3038.5C 3090.81,3038.66 3088.15,3038.5 3085.5,3038C 3083.67,3037.5 3082.5,3036.33 3082,3034.5C 3081.67,3024.48 3081.17,3014.48 3080.5,3004.5 Z"/></g>
<g><path style="opacity:1" fill="#a0e6f2" d="M 4780.5,3003.5 C 4786.02,3004.85 4789.85,3008.18 4792,3013.5C 4793.97,3021.72 4794.8,3030.05 4794.5,3038.5C 4791.81,3038.66 4789.15,3038.5 4786.5,3038C 4785.33,3037.5 4784.5,3036.67 4784,3035.5C 4783.97,3024.65 4782.81,3013.98 4780.5,3003.5 Z"/></g>
<g><path style="opacity:1" fill="#9ce5f1" d="M 4304.5,3017.5 C 4307.34,3018.77 4310.34,3019.6 4313.5,3020C 4323.81,3021.24 4334.14,3022.24 4344.5,3023C 4345.83,3030.6 4345.83,3038.1 4344.5,3045.5C 4344.5,3041.5 4344.5,3037.5 4344.5,3033.5C 4335.44,3032.83 4326.44,3031.66 4317.5,3030C 4311.32,3027.65 4306.99,3023.49 4304.5,3017.5 Z"/></g>
<g><path style="opacity:1" fill="#12c0df" d="M 3906.5,3036.5 C 3911.17,3045.97 3910.17,3054.8 3903.5,3063C 3901.47,3064.01 3899.3,3064.51 3897,3064.5C 3891.18,3063.68 3885.68,3061.84 3880.5,3059C 3870.75,3056.54 3862.75,3059.21 3856.5,3067C 3861.53,3069.85 3866.53,3072.68 3871.5,3075.5C 3887.46,3082.47 3901.13,3092.47 3912.5,3105.5C 3923.2,3128.91 3917.2,3146.74 3894.5,3159C 3881.69,3164.54 3868.36,3166.87 3854.5,3166C 3847.97,3164.32 3841.63,3162.16 3835.5,3159.5C 3821.43,3152.03 3817.59,3141.03 3824,3126.5C 3827.84,3122 3832.67,3119.16 3838.5,3118C 3845.55,3117.64 3852.55,3118.14 3859.5,3119.5C 3863.63,3120.48 3867.97,3120.82 3872.5,3120.5C 3872.67,3119.18 3872.34,3118.01 3871.5,3117C 3857.22,3112.08 3843.56,3105.91 3830.5,3098.5C 3810.2,3083.35 3807.04,3065.01 3821,3043.5C 3836.06,3025.03 3855.56,3016.86 3879.5,3019C 3891.22,3020.85 3900.22,3026.68 3906.5,3036.5 Z"/></g>
<g><path style="opacity:1" fill="#12c0df" d="M 4698.5,3036.5 C 4701.54,3044.71 4701.04,3052.71 4697,3060.5C 4693.34,3064.37 4688.84,3065.53 4683.5,3064C 4675.06,3058.56 4666.06,3057.23 4656.5,3060C 4653.54,3061.96 4650.87,3064.29 4648.5,3067C 4653.55,3069.86 4658.55,3072.69 4663.5,3075.5C 4674.11,3081.48 4684.44,3087.98 4694.5,3095C 4697.75,3097.75 4700.42,3100.91 4702.5,3104.5C 4715.08,3129.25 4708.75,3147.75 4683.5,3160C 4671.34,3165.17 4658.67,3167.17 4645.5,3166C 4638.97,3164.32 4632.63,3162.16 4626.5,3159.5C 4621.57,3156.41 4617.4,3152.41 4614,3147.5C 4608.76,3129.24 4615.59,3119.24 4634.5,3117.5C 4637.82,3118.05 4641.15,3118.39 4644.5,3118.5C 4650.59,3120.34 4656.92,3120.84 4663.5,3120C 4664.83,3119 4664.83,3118 4663.5,3117C 4648.35,3112.09 4634.02,3105.59 4620.5,3097.5C 4601.82,3083.22 4598.65,3065.89 4611,3045.5C 4630.76,3020.47 4655.59,3013.3 4685.5,3024C 4687.83,3025.67 4690.17,3027.33 4692.5,3029C 4694.36,3031.69 4696.36,3034.19 4698.5,3036.5 Z"/></g>
<g><path style="opacity:1" fill="#12c0df" d="M 3318.5,3034.5 C 3318.62,3037.69 3319.45,3040.69 3321,3043.5C 3322.65,3042.6 3324.15,3041.6 3325.5,3040.5C 3351.06,3031.89 3372.4,3037.89 3389.5,3058.5C 3394.53,3067.08 3394.69,3075.75 3390,3084.5C 3383.81,3087.31 3377.31,3088.15 3370.5,3087C 3365.83,3085 3361.17,3083 3356.5,3081C 3349.51,3079.33 3345.17,3082 3343.5,3089C 3340.08,3100.1 3336.91,3111.27 3334,3122.5C 3333.67,3130.5 3333.33,3138.5 3333,3146.5C 3327.12,3161.52 3316.29,3167.19 3300.5,3163.5C 3292.15,3158.97 3286.99,3151.97 3285,3142.5C 3284.33,3107.17 3284.33,3071.83 3285,3036.5C 3294.71,3015.98 3305.88,3015.31 3318.5,3034.5 Z"/></g>
<g><path style="opacity:1" fill="#11c0df" d="M 3259.5,3051.5 C 3270.68,3079.64 3261.68,3097.81 3232.5,3106C 3220.18,3108.44 3207.85,3110.78 3195.5,3113C 3199.39,3114.64 3203.39,3115.97 3207.5,3117C 3215.24,3117.84 3222.9,3119.01 3230.5,3120.5C 3238.6,3121.54 3243.93,3125.87 3246.5,3133.5C 3245.92,3140.81 3242.59,3146.64 3236.5,3151C 3232.29,3153.27 3227.95,3155.27 3223.5,3157C 3205.65,3159.53 3188.99,3156.36 3173.5,3147.5C 3153.14,3130.6 3145.31,3108.94 3150,3082.5C 3152.22,3063.23 3160.38,3047.07 3174.5,3034C 3191.32,3022.34 3209.32,3020.34 3228.5,3028C 3240.75,3033.42 3251.08,3041.26 3259.5,3051.5 Z"/></g>
<g><path style="opacity:1" fill="#11c0df" d="M 4047.5,3051.5 C 4056.86,3067.57 4055.2,3082.41 4042.5,3096C 4036.17,3100.67 4029.17,3104 4021.5,3106C 4009.18,3108.44 3996.84,3110.78 3984.5,3113C 3995.91,3116.65 4007.58,3119.15 4019.5,3120.5C 4023.46,3121.32 4027.12,3122.82 4030.5,3125C 4032.54,3127.19 4033.87,3129.69 4034.5,3132.5C 4035.14,3141.39 4031.47,3147.89 4023.5,3152C 4019.72,3154.22 4015.72,3155.89 4011.5,3157C 3993.33,3159.93 3976.66,3156.43 3961.5,3146.5C 3943.06,3131.72 3935.23,3112.39 3938,3088.5C 3939.47,3066.39 3948.3,3047.89 3964.5,3033C 3985.38,3020.48 4006.38,3020.48 4027.5,3033C 4035.62,3037.62 4042.28,3043.79 4047.5,3051.5 Z"/></g>
<g><path style="opacity:1" fill="#11c0df" d="M 4579.5,3052.5 C 4589.85,3079.96 4580.85,3097.79 4552.5,3106C 4539.88,3108.55 4527.21,3110.88 4514.5,3113C 4526.27,3116.68 4538.27,3119.18 4550.5,3120.5C 4556.74,3121.24 4561.57,3124.24 4565,3129.5C 4565.49,3130.79 4565.66,3132.13 4565.5,3133.5C 4565.33,3141.66 4561.67,3147.82 4554.5,3152C 4550.72,3154.22 4546.72,3155.89 4542.5,3157C 4524.91,3159.78 4508.57,3156.61 4493.5,3147.5C 4476.7,3135.24 4468.37,3118.57 4468.5,3097.5C 4468.25,3074.73 4475.42,3054.73 4490,3037.5C 4508.28,3022.13 4528.45,3019.3 4550.5,3029C 4562.14,3034.48 4571.81,3042.32 4579.5,3052.5 Z"/></g>
<g><path style="opacity:1" fill="#11c0df" d="M 2867.5,3043.5 C 2869.16,3050.01 2868.66,3056.35 2866,3062.5C 2851.24,3091.45 2837.24,3120.79 2824,3150.5C 2816.77,3161.03 2806.93,3164.7 2794.5,3161.5C 2784.66,3154.18 2777.99,3144.52 2774.5,3132.5C 2771.68,3126.19 2768.85,3119.86 2766,3113.5C 2761.2,3124.22 2756.2,3134.88 2751,3145.5C 2743.48,3156.18 2733.31,3159.84 2720.5,3156.5C 2711.12,3151.26 2705.29,3143.26 2703,3132.5C 2695.77,3107.53 2690.27,3082.2 2686.5,3056.5C 2687.06,3042.9 2694.06,3036.73 2707.5,3038C 2713.66,3040.32 2717.99,3044.49 2720.5,3050.5C 2726.29,3064.35 2731.79,3078.35 2737,3092.5C 2738.03,3089.22 2739.53,3086.22 2741.5,3083.5C 2746.56,3071.82 2751.73,3060.15 2757,3048.5C 2769.85,3037.69 2780.35,3039.69 2788.5,3054.5C 2793.2,3067.92 2798.86,3080.92 2805.5,3093.5C 2806.7,3091.23 2807.7,3088.9 2808.5,3086.5C 2814.51,3070.63 2821.01,3054.96 2828,3039.5C 2842.86,3025.13 2856.02,3026.47 2867.5,3043.5 Z"/></g>
<g><path style="opacity:1" fill="#12c0df" d="M 2999.5,3043.5 C 2999.63,3058.79 2999.79,3074.13 3000,3089.5C 3002.13,3103.27 3004.8,3116.94 3008,3130.5C 3009.94,3146.4 3003.1,3153.74 2987.5,3152.5C 2986.61,3151.89 2985.61,3151.56 2984.5,3151.5C 2980.38,3147.95 2976.72,3143.95 2973.5,3139.5C 2964.56,3146.81 2954.56,3152.31 2943.5,3156C 2932.72,3158.63 2922.38,3157.46 2912.5,3152.5C 2898.97,3141.45 2891.14,3127.12 2889,3109.5C 2885.24,3085.37 2889.08,3062.54 2900.5,3041C 2907.13,3036.22 2913.63,3036.39 2920,3041.5C 2921.34,3044.02 2922.17,3046.69 2922.5,3049.5C 2922.41,3068.72 2924.58,3087.72 2929,3106.5C 2929.85,3109.7 2931.35,3112.53 2933.5,3115C 2935.88,3115.74 2937.88,3115.24 2939.5,3113.5C 2944.57,3108.38 2948.4,3102.38 2951,3095.5C 2955.51,3079.63 2959.51,3063.63 2963,3047.5C 2967.68,3031.75 2977.51,3027.25 2992.5,3034C 2995.88,3036.53 2998.22,3039.7 2999.5,3043.5 Z"/></g>
<g><path style="opacity:1" fill="#11c0df" d="M 3778.5,3053.5 C 3783.44,3075.38 3787.94,3097.38 3792,3119.5C 3792.67,3126.17 3792.67,3132.83 3792,3139.5C 3786.01,3151.08 3776.84,3154.75 3764.5,3150.5C 3762.5,3148.83 3760.5,3147.17 3758.5,3145.5C 3754.86,3141.52 3751.19,3137.52 3747.5,3133.5C 3737.47,3140.68 3726.47,3145.85 3714.5,3149C 3703.66,3150.96 3693.66,3149.12 3684.5,3143.5C 3673.82,3136.84 3667.66,3127.17 3666,3114.5C 3666.64,3081.38 3681.14,3056.22 3709.5,3039C 3731.48,3027.39 3752.15,3029.39 3771.5,3045C 3774.42,3047.42 3776.76,3050.25 3778.5,3053.5 Z"/></g>
<g><path style="opacity:1" fill="#9ee6f2" d="M 3318.5,3034.5 C 3321.45,3035.78 3323.78,3037.78 3325.5,3040.5C 3324.15,3041.6 3322.65,3042.6 3321,3043.5C 3319.45,3040.69 3318.62,3037.69 3318.5,3034.5 Z"/></g>
<g><path style="opacity:1" fill="#12c0df" d="M 2372.5,3049.5 C 2372.74,3052.91 2373.4,3056.25 2374.5,3059.5C 2376.21,3058.11 2377.88,3056.78 2379.5,3055.5C 2386.14,3050.84 2393.14,3046.67 2400.5,3043C 2409.26,3039.16 2417.59,3039.83 2425.5,3045C 2431.32,3049.98 2436.98,3055.15 2442.5,3060.5C 2456.41,3040.36 2474.41,3035.52 2496.5,3046C 2501.7,3050.03 2506.36,3054.53 2510.5,3059.5C 2521.89,3083.51 2526.73,3108.84 2525,3135.5C 2521.88,3151.46 2512.38,3158.13 2496.5,3155.5C 2490.88,3153.05 2486.72,3149.05 2484,3143.5C 2480.09,3132.76 2477.25,3121.76 2475.5,3110.5C 2474.25,3103.55 2473.25,3096.55 2472.5,3089.5C 2471.91,3089.29 2471.41,3088.96 2471,3088.5C 2458.91,3102.92 2453.57,3119.59 2455,3138.5C 2451.48,3154.52 2441.65,3161.19 2425.5,3158.5C 2418.62,3154.78 2414.12,3149.11 2412,3141.5C 2411.6,3126.16 2411.76,3110.83 2412.5,3095.5C 2411.58,3088.89 2411.24,3082.22 2411.5,3075.5C 2409.77,3075.19 2408.11,3075.02 2406.5,3075C 2402.88,3079.07 2399.38,3083.24 2396,3087.5C 2387.79,3107.8 2379.79,3128.13 2372,3148.5C 2364.99,3157.2 2356.16,3159.87 2345.5,3156.5C 2336.82,3152.64 2331.65,3145.97 2330,3136.5C 2331.35,3108.36 2334.35,3080.36 2339,3052.5C 2341.88,3043.62 2347.88,3038.28 2357,3036.5C 2363.82,3038.81 2368.98,3043.14 2372.5,3049.5 Z"/></g>
<g><path style="opacity:1" fill="#9de5f1" d="M 3906.5,3036.5 C 3920.73,3045.31 3924.23,3057.31 3917,3072.5C 3914.87,3075.32 3912.03,3076.65 3908.5,3076.5C 3902.65,3074.91 3896.98,3072.75 3891.5,3070C 3883.63,3068.02 3876.96,3069.85 3871.5,3075.5C 3866.53,3072.68 3861.53,3069.85 3856.5,3067C 3862.75,3059.21 3870.75,3056.54 3880.5,3059C 3885.68,3061.84 3891.18,3063.68 3897,3064.5C 3899.3,3064.51 3901.47,3064.01 3903.5,3063C 3910.17,3054.8 3911.17,3045.97 3906.5,3036.5 Z"/></g>
<g><path style="opacity:1" fill="#9ee6f2" d="M 4698.5,3036.5 C 4711.77,3045.25 4715.27,3056.91 4709,3071.5C 4706.72,3074.89 4703.56,3076.55 4699.5,3076.5C 4694.54,3075.52 4689.87,3073.69 4685.5,3071C 4677.05,3067.86 4669.71,3069.36 4663.5,3075.5C 4658.55,3072.69 4653.55,3069.86 4648.5,3067C 4650.87,3064.29 4653.54,3061.96 4656.5,3060C 4666.06,3057.23 4675.06,3058.56 4683.5,3064C 4688.84,3065.53 4693.34,3064.37 4697,3060.5C 4701.04,3052.71 4701.54,3044.71 4698.5,3036.5 Z"/></g>
<g><path style="opacity:1" fill="#11c0df" d="M 2308.5,3068.5 C 2314.03,3080.49 2314.86,3092.82 2311,3105.5C 2297.85,3151.33 2268.35,3167.83 2222.5,3155C 2216.81,3153.65 2211.48,3151.49 2206.5,3148.5C 2191.55,3138.53 2185.39,3124.53 2188,3106.5C 2193.32,3077.85 2209.16,3057.35 2235.5,3045C 2242.1,3043.5 2248.77,3043.17 2255.5,3044C 2266.14,3046.5 2276.81,3048.83 2287.5,3051C 2296.17,3054.98 2303.17,3060.81 2308.5,3068.5 Z"/></g>
<g><path style="opacity:1" fill="#12c0df" d="M 2654.5,3064.5 C 2667.91,3087.12 2670.08,3110.79 2661,3135.5C 2645.12,3159.02 2622.95,3168.85 2594.5,3165C 2592.78,3164.65 2591.12,3164.15 2589.5,3163.5C 2588.67,3179.16 2588.17,3194.82 2588,3210.5C 2587.36,3229.99 2577.53,3238.32 2558.5,3235.5C 2551.16,3232.18 2546.66,3226.51 2545,3218.5C 2545.67,3196.35 2545.51,3174.18 2544.5,3152C 2544.37,3139.44 2545.2,3126.94 2547,3114.5C 2551.43,3094.57 2555.43,3074.57 2559,3054.5C 2562.8,3047.9 2567.96,3046.74 2574.5,3051C 2576,3052.5 2577.5,3054 2579,3055.5C 2591.03,3049.49 2603.69,3045.49 2617,3043.5C 2633.31,3043.9 2645.81,3050.9 2654.5,3064.5 Z"/></g>
<g><path style="opacity:1" fill="#9ee6f2" d="M 2867.5,3043.5 C 2878.84,3050.2 2882.34,3059.87 2878,3072.5C 2863.2,3101.77 2849.2,3131.44 2836,3161.5C 2827.81,3174.01 2816.98,3177.18 2803.5,3171C 2799.62,3168.62 2796.62,3165.45 2794.5,3161.5C 2806.93,3164.7 2816.77,3161.03 2824,3150.5C 2837.24,3120.79 2851.24,3091.45 2866,3062.5C 2868.66,3056.35 2869.16,3050.01 2867.5,3043.5 Z"/></g>
<g><path style="opacity:1" fill="#9fe6f2" d="M 2999.5,3043.5 C 3005.61,3045.78 3009.44,3050.11 3011,3056.5C 3008.83,3084.34 3011.5,3111.67 3019,3138.5C 3019.67,3143.17 3019.67,3147.83 3019,3152.5C 3016.92,3160.46 3011.75,3164.46 3003.5,3164.5C 2995.59,3163.93 2990.26,3159.93 2987.5,3152.5C 3003.1,3153.74 3009.94,3146.4 3008,3130.5C 3004.8,3116.94 3002.13,3103.27 3000,3089.5C 2999.79,3074.13 2999.63,3058.79 2999.5,3043.5 Z"/></g>
<g><path style="opacity:1" fill="#9de5f1" d="M 2372.5,3049.5 C 2375.43,3050.76 2377.76,3052.76 2379.5,3055.5C 2377.88,3056.78 2376.21,3058.11 2374.5,3059.5C 2373.4,3056.25 2372.74,3052.91 2372.5,3049.5 Z"/></g>
<g><path style="opacity:1" fill="#9ee6f2" d="M 2922.5,3049.5 C 2928.67,3049.5 2932.5,3052.5 2934,3058.5C 2934.82,3070.82 2935.49,3083.16 2936,3095.5C 2936.98,3101.56 2938.14,3107.56 2939.5,3113.5C 2937.88,3115.24 2935.88,3115.74 2933.5,3115C 2931.35,3112.53 2929.85,3109.7 2929,3106.5C 2924.58,3087.72 2922.41,3068.72 2922.5,3049.5 Z"/></g>
<g><path style="opacity:1" fill="#9fe6f2" d="M 2720.5,3050.5 C 2724.7,3051.86 2727.87,3054.53 2730,3058.5C 2733.95,3066.89 2737.79,3075.23 2741.5,3083.5C 2739.53,3086.22 2738.03,3089.22 2737,3092.5C 2731.79,3078.35 2726.29,3064.35 2720.5,3050.5 Z"/></g>
<g><path style="opacity:1" fill="#9de5f1" d="M 4047.5,3051.5 C 4062.44,3062.14 4067.61,3076.47 4063,3094.5C 4057.3,3106.12 4048.13,3113.62 4035.5,3117C 4030.02,3118.12 4024.69,3119.29 4019.5,3120.5C 4007.58,3119.15 3995.91,3116.65 3984.5,3113C 3996.84,3110.78 4009.18,3108.44 4021.5,3106C 4029.17,3104 4036.17,3100.67 4042.5,3096C 4055.2,3082.41 4056.86,3067.57 4047.5,3051.5 Z"/></g>
<g><path style="opacity:1" fill="#9ee5f1" d="M 4579.5,3052.5 C 4593.75,3063.08 4598.58,3077.08 4594,3094.5C 4588.18,3105.97 4579.02,3113.47 4566.5,3117C 4561.03,3118.2 4555.7,3119.37 4550.5,3120.5C 4538.27,3119.18 4526.27,3116.68 4514.5,3113C 4527.21,3110.88 4539.88,3108.55 4552.5,3106C 4580.85,3097.79 4589.85,3079.96 4579.5,3052.5 Z"/></g>
<g><path style="opacity:1" fill="#9ee6f2" d="M 3122.5,3053.5 C 3134.31,3060.12 3137.15,3069.45 3131,3081.5C 3127.73,3084.88 3123.9,3087.38 3119.5,3089C 3110.51,3089.5 3101.51,3089.67 3092.5,3089.5C 3093.21,3098.87 3094.21,3108.21 3095.5,3117.5C 3096.5,3117.5 3097.5,3117.5 3098.5,3117.5C 3093.46,3119.5 3089.29,3118.16 3086,3113.5C 3083.15,3102.02 3081.65,3090.36 3081.5,3078.5C 3089.51,3078.67 3097.51,3078.5 3105.5,3078C 3118.43,3075 3124.09,3066.84 3122.5,3053.5 Z"/></g>
<g><path style="opacity:1" fill="#9de5f1" d="M 3259.5,3051.5 C 3276.96,3065.71 3280.46,3082.71 3270,3102.5C 3263.69,3109.74 3255.86,3114.57 3246.5,3117C 3241.02,3118.12 3235.69,3119.29 3230.5,3120.5C 3222.9,3119.01 3215.24,3117.84 3207.5,3117C 3203.39,3115.97 3199.39,3114.64 3195.5,3113C 3207.85,3110.78 3220.18,3108.44 3232.5,3106C 3261.68,3097.81 3270.68,3079.64 3259.5,3051.5 Z"/></g>
<g><path style="opacity:1" fill="#9ee6f2" d="M 4823.5,3053.5 C 4835.84,3059.87 4838.68,3069.2 4832,3081.5C 4829.07,3085.38 4825.24,3087.88 4820.5,3089C 4811.48,3089.17 4802.48,3089.67 4793.5,3090.5C 4795.01,3099.43 4796.01,3108.43 4796.5,3117.5C 4797.5,3117.5 4798.5,3117.5 4799.5,3117.5C 4794.09,3119.3 4789.92,3117.63 4787,3112.5C 4784.84,3101.25 4783.34,3089.92 4782.5,3078.5C 4790.84,3078.67 4799.17,3078.5 4807.5,3078C 4820.21,3074.75 4825.55,3066.59 4823.5,3053.5 Z"/></g>
<g><path style="opacity:1" fill="#9fe6f2" d="M 2788.5,3054.5 C 2792.7,3055.86 2795.87,3058.53 2798,3062.5C 2801.83,3070.47 2805.33,3078.47 2808.5,3086.5C 2807.7,3088.9 2806.7,3091.23 2805.5,3093.5C 2798.86,3080.92 2793.2,3067.92 2788.5,3054.5 Z"/></g>
<g><path style="opacity:1" fill="#9fe6f2" d="M 3778.5,3053.5 C 3784.65,3056.82 3788.82,3061.82 3791,3068.5C 3795.28,3088.12 3799.28,3107.79 3803,3127.5C 3804.3,3134.13 3804.64,3140.79 3804,3147.5C 3800.85,3160.27 3792.69,3165.44 3779.5,3163C 3773.24,3160.22 3768.24,3156.06 3764.5,3150.5C 3776.84,3154.75 3786.01,3151.08 3792,3139.5C 3792.67,3132.83 3792.67,3126.17 3792,3119.5C 3787.94,3097.38 3783.44,3075.38 3778.5,3053.5 Z"/></g>
<g><path style="opacity:1" fill="#9ce5f1" d="M 3225.5,3070.5 C 3226.26,3069.73 3227.26,3069.23 3228.5,3069C 3224.5,3068.33 3220.5,3068.33 3216.5,3069C 3214.93,3069.61 3213.6,3070.44 3212.5,3071.5C 3205.8,3071.9 3199.13,3072.57 3192.5,3073.5C 3196.76,3058.04 3206.42,3053.2 3221.5,3059C 3225.75,3061.24 3229.41,3064.24 3232.5,3068C 3230.56,3069.9 3228.23,3070.74 3225.5,3070.5 Z"/></g>
<g><path style="opacity:1" fill="#9ce5f1" d="M 4017.5,3069.5 C 4013.69,3068.35 4009.69,3068.19 4005.5,3069C 4003.93,3069.61 4002.6,3070.44 4001.5,3071.5C 3994.81,3071.99 3988.14,3072.65 3981.5,3073.5C 3986.82,3056.35 3997.49,3052.19 4013.5,3061C 4016.31,3062.64 4018.64,3064.81 4020.5,3067.5C 4020,3068.92 4019,3069.59 4017.5,3069.5 Z"/></g>
<g><path style="opacity:1" fill="#9ce5f1" d="M 4548.5,3069.5 C 4544.69,3068.35 4540.69,3068.19 4536.5,3069C 4534.93,3069.61 4533.6,3070.44 4532.5,3071.5C 4525.81,3071.99 4519.14,3072.65 4512.5,3073.5C 4514.92,3061.46 4522.25,3055.96 4534.5,3057C 4541.47,3058.48 4547.13,3061.98 4551.5,3067.5C 4551,3068.92 4550,3069.59 4548.5,3069.5 Z"/></g>
<g><path style="opacity:1" fill="#9ee6f2" d="M 3389.5,3058.5 C 3402.86,3067.85 3407.02,3080.19 3402,3095.5C 3396.34,3099.17 3390.17,3100.34 3383.5,3099C 3377.29,3095.81 3370.79,3093.31 3364,3091.5C 3361.59,3091.7 3359.59,3092.7 3358,3094.5C 3348.92,3114.17 3344.58,3134.84 3345,3156.5C 3340.45,3170.86 3330.62,3177.36 3315.5,3176C 3308.42,3174.15 3303.42,3169.99 3300.5,3163.5C 3316.29,3167.19 3327.12,3161.52 3333,3146.5C 3333.33,3138.5 3333.67,3130.5 3334,3122.5C 3336.91,3111.27 3340.08,3100.1 3343.5,3089C 3345.17,3082 3349.51,3079.33 3356.5,3081C 3361.17,3083 3365.83,3085 3370.5,3087C 3377.31,3088.15 3383.81,3087.31 3390,3084.5C 3394.69,3075.75 3394.53,3067.08 3389.5,3058.5 Z"/></g>
<g><path style="opacity:1" fill="#9fe6f2" d="M 2510.5,3059.5 C 2520.35,3068.52 2527.19,3079.52 2531,3092.5C 2535.72,3110.56 2537.38,3128.89 2536,3147.5C 2531.67,3166.75 2520.5,3172.25 2502.5,3164C 2499.48,3161.82 2497.48,3158.99 2496.5,3155.5C 2512.38,3158.13 2521.88,3151.46 2525,3135.5C 2526.73,3108.84 2521.89,3083.51 2510.5,3059.5 Z"/></g>
<g><path style="opacity:1" fill="#9de5f1" d="M 3736.5,3083.5 C 3728.16,3090.08 3722.5,3098.08 3719.5,3107.5C 3715.05,3110.46 3710.22,3111.13 3705,3109.5C 3705.03,3100.4 3707.7,3092.06 3713,3084.5C 3719.23,3075.43 3727.4,3068.77 3737.5,3064.5C 3738.76,3071.04 3738.42,3077.37 3736.5,3083.5 Z"/></g>
<g><path style="opacity:1" fill="#9ee6f2" d="M 2654.5,3064.5 C 2659.81,3067.65 2663.98,3071.98 2667,3077.5C 2679.8,3099.6 2681.8,3122.6 2673,3146.5C 2660.23,3166.81 2641.73,3177.14 2617.5,3177.5C 2611.44,3177.27 2605.44,3176.6 2599.5,3175.5C 2599.67,3192.17 2599.5,3208.84 2599,3225.5C 2597.25,3242.91 2587.75,3250.08 2570.5,3247C 2564.68,3245.01 2560.68,3241.18 2558.5,3235.5C 2577.53,3238.32 2587.36,3229.99 2588,3210.5C 2588.17,3194.82 2588.67,3179.16 2589.5,3163.5C 2591.12,3164.15 2592.78,3164.65 2594.5,3165C 2622.95,3168.85 2645.12,3159.02 2661,3135.5C 2670.08,3110.79 2667.91,3087.12 2654.5,3064.5 Z"/></g>
<g><path style="opacity:1" fill="#9de5f1" d="M 3600.5,3084.5 C 3584.71,3078.19 3568.38,3076.69 3551.5,3080C 3549.95,3081.21 3548.78,3082.71 3548,3084.5C 3547.5,3099.83 3547.33,3115.16 3547.5,3130.5C 3541.43,3130.89 3537.59,3128.22 3536,3122.5C 3535.33,3106.17 3535.33,3089.83 3536,3073.5C 3537.14,3071.39 3538.64,3069.56 3540.5,3068C 3552.88,3067.11 3565.22,3067.44 3577.5,3069C 3586.99,3071.69 3594.66,3076.85 3600.5,3084.5 Z"/></g>
<g><path style="opacity:1" fill="#f0fbfd" d="M 3225.5,3070.5 C 3221.12,3070.37 3216.79,3070.71 3212.5,3071.5C 3213.6,3070.44 3214.93,3069.61 3216.5,3069C 3220.5,3068.33 3224.5,3068.33 3228.5,3069C 3227.26,3069.23 3226.26,3069.73 3225.5,3070.5 Z"/></g>
<g><path style="opacity:1" fill="#f2fbfd" d="M 4017.5,3069.5 C 4012.14,3070 4006.81,3070.67 4001.5,3071.5C 4002.6,3070.44 4003.93,3069.61 4005.5,3069C 4009.69,3068.19 4013.69,3068.35 4017.5,3069.5 Z"/></g>
<g><path style="opacity:1" fill="#f2fbfd" d="M 4548.5,3069.5 C 4543.14,3070 4537.81,3070.67 4532.5,3071.5C 4533.6,3070.44 4534.93,3069.61 4536.5,3069C 4540.69,3068.19 4544.69,3068.35 4548.5,3069.5 Z"/></g>
<g><path style="opacity:1" fill="#9ee5f1" d="M 3039.5,3068.5 C 3042.68,3070.19 3044.35,3072.86 3044.5,3076.5C 3042.05,3074.37 3040.38,3071.7 3039.5,3068.5 Z"/></g>
<g><path style="opacity:1" fill="#9ee6f2" d="M 2308.5,3068.5 C 2321.61,3078.64 2326.77,3091.97 2324,3108.5C 2320.95,3131.46 2310.11,3149.63 2291.5,3163C 2280.68,3169.36 2269.01,3172.03 2256.5,3171C 2241.59,3169.44 2227.59,3165.11 2214.5,3158C 2211.22,3155.23 2208.56,3152.07 2206.5,3148.5C 2211.48,3151.49 2216.81,3153.65 2222.5,3155C 2268.35,3167.83 2297.85,3151.33 2311,3105.5C 2314.86,3092.82 2314.03,3080.49 2308.5,3068.5 Z"/></g>
<g><path style="opacity:1" fill="#9ee5f2" d="M 3635.5,3066.5 C 3657.01,3086.53 3662.84,3110.53 3653,3138.5C 3645.67,3154.83 3633.5,3165.99 3616.5,3172C 3587.45,3185.26 3557.78,3186.92 3527.5,3177C 3522.33,3174.25 3517.33,3171.25 3512.5,3168C 3509.88,3165.89 3507.88,3163.39 3506.5,3160.5C 3525.3,3170.28 3545.3,3173.78 3566.5,3171C 3589.85,3168.34 3610.68,3159.84 3629,3145.5C 3649.7,3120.66 3651.86,3094.33 3635.5,3066.5 Z"/></g>
<g><path style="opacity:1" fill="#9de5f1" d="M 2412.5,3095.5 C 2411.6,3094.4 2410.77,3094.4 2410,3095.5C 2400.25,3115.09 2392.25,3135.42 2386,3156.5C 2377.1,3169.93 2365.6,3172.77 2351.5,3165C 2348.48,3162.82 2346.48,3159.99 2345.5,3156.5C 2356.16,3159.87 2364.99,3157.2 2372,3148.5C 2379.79,3128.13 2387.79,3107.8 2396,3087.5C 2399.38,3083.24 2402.88,3079.07 2406.5,3075C 2408.11,3075.02 2409.77,3075.19 2411.5,3075.5C 2411.24,3082.22 2411.58,3088.89 2412.5,3095.5 Z"/></g>
<g><path style="opacity:1" fill="#9de5f1" d="M 2269.5,3091.5 C 2265.78,3088.45 2261.78,3087.95 2257.5,3090C 2250.25,3097.68 2244.91,3106.51 2241.5,3116.5C 2234.54,3116.87 2230.54,3113.71 2229.5,3107C 2232.49,3096.35 2237.83,3087.01 2245.5,3079C 2249.14,3077.1 2252.8,3077.1 2256.5,3079C 2259.33,3081.25 2262.33,3083.25 2265.5,3085C 2267.73,3086.64 2269.07,3088.8 2269.5,3091.5 Z"/></g>
<g><path style="opacity:1" fill="#9de5f1" d="M 2628.5,3089.5 C 2617.78,3091.38 2609.61,3097.04 2604,3106.5C 2601.6,3110.63 2599.76,3114.97 2598.5,3119.5C 2593.93,3119.7 2589.93,3118.36 2586.5,3115.5C 2585.48,3109.81 2586.65,3104.47 2590,3099.5C 2594.01,3091.95 2599.51,3085.78 2606.5,3081C 2611.44,3077.9 2616.77,3076.9 2622.5,3078C 2626.73,3080.62 2628.73,3084.45 2628.5,3089.5 Z"/></g>
<g><path style="opacity:1" fill="#fefefe" d="M 3600.5,3084.5 C 3606.54,3093.48 3607.04,3102.81 3602,3112.5C 3594.72,3120.06 3585.89,3124.89 3575.5,3127C 3566.31,3129.29 3556.98,3130.45 3547.5,3130.5C 3547.33,3115.16 3547.5,3099.83 3548,3084.5C 3548.78,3082.71 3549.95,3081.21 3551.5,3080C 3568.38,3076.69 3584.71,3078.19 3600.5,3084.5 Z"/></g>
<g><path style="opacity:1" fill="#9ce5f1" d="M 4152.5,3092.5 C 4149.51,3091.84 4146.51,3091.17 4143.5,3090.5C 4141.16,3090.67 4138.99,3091.34 4137,3092.5C 4133,3100.29 4130.83,3108.29 4130.5,3116.5C 4125.2,3118.12 4121.04,3116.45 4118,3111.5C 4117.8,3100.95 4120.14,3090.95 4125,3081.5C 4136.86,3078.18 4146.03,3081.85 4152.5,3092.5 Z"/></g>
<g><path style="opacity:1" fill="#f9fdfe" d="M 3736.5,3083.5 C 3734.27,3093.96 3728.61,3101.96 3719.5,3107.5C 3722.5,3098.08 3728.16,3090.08 3736.5,3083.5 Z"/></g>
<g><path style="opacity:1" fill="#fcfefe" d="M 2269.5,3091.5 C 2269.06,3100.55 2265.73,3108.38 2259.5,3115C 2253.54,3117.57 2247.54,3118.07 2241.5,3116.5C 2244.91,3106.51 2250.25,3097.68 2257.5,3090C 2261.78,3087.95 2265.78,3088.45 2269.5,3091.5 Z"/></g>
<g><path style="opacity:1" fill="#9ee5f2" d="M 2475.5,3110.5 C 2472.14,3116.05 2469.64,3122.05 2468,3128.5C 2467.78,3136.54 2467.11,3144.54 2466,3152.5C 2461.99,3166.26 2452.82,3172.1 2438.5,3170C 2432.73,3167.73 2428.4,3163.9 2425.5,3158.5C 2441.65,3161.19 2451.48,3154.52 2455,3138.5C 2453.57,3119.59 2458.91,3102.92 2471,3088.5C 2471.41,3088.96 2471.91,3089.29 2472.5,3089.5C 2473.25,3096.55 2474.25,3103.55 2475.5,3110.5 Z"/></g>
<g><path style="opacity:1" fill="#fdfefe" d="M 2628.5,3089.5 C 2629.65,3094.65 2629.82,3099.98 2629,3105.5C 2627.83,3113.33 2623.33,3117.83 2615.5,3119C 2609.84,3119.5 2604.18,3119.67 2598.5,3119.5C 2599.76,3114.97 2601.6,3110.63 2604,3106.5C 2609.61,3097.04 2617.78,3091.38 2628.5,3089.5 Z"/></g>
<g><path style="opacity:1" fill="#fcfefe" d="M 4152.5,3092.5 C 4156.21,3097.2 4157.38,3102.53 4156,3108.5C 4147.87,3112.16 4139.37,3114.83 4130.5,3116.5C 4130.83,3108.29 4133,3100.29 4137,3092.5C 4138.99,3091.34 4141.16,3090.67 4143.5,3090.5C 4146.51,3091.17 4149.51,3091.84 4152.5,3092.5 Z"/></g>
<g><path style="opacity:1" fill="#9ee5f1" d="M 4620.5,3097.5 C 4634.02,3105.59 4648.35,3112.09 4663.5,3117C 4664.83,3118 4664.83,3119 4663.5,3120C 4656.92,3120.84 4650.59,3120.34 4644.5,3118.5C 4645.87,3118.66 4647.21,3118.49 4648.5,3118C 4637.25,3113.56 4627.92,3106.72 4620.5,3097.5 Z"/></g>
<g><path style="opacity:1" fill="#9de5f1" d="M 3830.5,3098.5 C 3843.56,3105.91 3857.22,3112.08 3871.5,3117C 3872.34,3118.01 3872.67,3119.18 3872.5,3120.5C 3867.97,3120.82 3863.63,3120.48 3859.5,3119.5C 3853.23,3116.03 3846.9,3112.53 3840.5,3109C 3836.27,3106.27 3832.93,3102.77 3830.5,3098.5 Z"/></g>
<g><path style="opacity:1" fill="#9ee6f2" d="M 4702.5,3104.5 C 4721.39,3118.32 4725.55,3135.66 4715,3156.5C 4706.05,3167.23 4694.55,3173.73 4680.5,3176C 4659.85,3181.21 4642.01,3176.38 4627,3161.5C 4626.54,3160.91 4626.37,3160.24 4626.5,3159.5C 4632.63,3162.16 4638.97,3164.32 4645.5,3166C 4658.67,3167.17 4671.34,3165.17 4683.5,3160C 4708.75,3147.75 4715.08,3129.25 4702.5,3104.5 Z"/></g>
<g><path style="opacity:1" fill="#9ee6f2" d="M 3912.5,3105.5 C 3928.67,3117.83 3933.17,3133.5 3926,3152.5C 3920.58,3161.92 3912.74,3168.42 3902.5,3172C 3883.12,3179.95 3864.12,3179.28 3845.5,3170C 3840.9,3167.57 3837.57,3164.07 3835.5,3159.5C 3841.63,3162.16 3847.97,3164.32 3854.5,3166C 3868.36,3166.87 3881.69,3164.54 3894.5,3159C 3917.2,3146.74 3923.2,3128.91 3912.5,3105.5 Z"/></g>
<g><path style="opacity:1" fill="#9de5f1" d="M 2774.5,3132.5 C 2770.57,3141.69 2766.07,3150.69 2761,3159.5C 2749.65,3171.55 2737.49,3172.55 2724.5,3162.5C 2722.72,3160.74 2721.39,3158.74 2720.5,3156.5C 2733.31,3159.84 2743.48,3156.18 2751,3145.5C 2756.2,3134.88 2761.2,3124.22 2766,3113.5C 2768.85,3119.86 2771.68,3126.19 2774.5,3132.5 Z"/></g>
<g><path style="opacity:1" fill="#9ee6f2" d="M 3129.5,3128.5 C 3140.72,3133.82 3143.55,3142.15 3138,3153.5C 3129.59,3163.2 3118.92,3167.86 3106,3167.5C 3091.68,3167.34 3079.68,3162.01 3070,3151.5C 3069.54,3150.91 3069.37,3150.24 3069.5,3149.5C 3083.74,3156.51 3098.41,3157.35 3113.5,3152C 3124.23,3147.78 3129.56,3139.95 3129.5,3128.5 Z"/></g>
<g><path style="opacity:1" fill="#9fe6f2" d="M 4830.5,3128.5 C 4837.56,3130.92 4841.56,3135.92 4842.5,3143.5C 4840.96,3153.75 4835.29,3160.58 4825.5,3164C 4806.66,3171.02 4789.66,3168.02 4774.5,3155C 4772.86,3153.87 4771.86,3152.37 4771.5,3150.5C 4788.08,3157.62 4804.41,3157.12 4820.5,3149C 4827.72,3143.97 4831.06,3137.14 4830.5,3128.5 Z"/></g>
<g><path style="opacity:1" fill="#9ee6f2" d="M 3758.5,3145.5 C 3746,3154.75 3732,3160.09 3716.5,3161.5C 3702.8,3160.66 3692.13,3154.66 3684.5,3143.5C 3693.66,3149.12 3703.66,3150.96 3714.5,3149C 3726.47,3145.85 3737.47,3140.68 3747.5,3133.5C 3751.19,3137.52 3754.86,3141.52 3758.5,3145.5 Z"/></g>
<g><path style="opacity:1" fill="#9ee6f2" d="M 3246.5,3133.5 C 3255.41,3136.31 3258.91,3142.31 3257,3151.5C 3252.61,3159.88 3245.77,3165.38 3236.5,3168C 3216.87,3172.06 3198.87,3168.4 3182.5,3157C 3179.3,3153.96 3176.3,3150.8 3173.5,3147.5C 3188.99,3156.36 3205.65,3159.53 3223.5,3157C 3227.95,3155.27 3232.29,3153.27 3236.5,3151C 3242.59,3146.64 3245.92,3140.81 3246.5,3133.5 Z"/></g>
<g><path style="opacity:1" fill="#9ee6f2" d="M 4034.5,3132.5 C 4049.36,3140.74 4050.36,3150.58 4037.5,3162C 4029.43,3167.68 4020.43,3170.18 4010.5,3169.5C 3996.74,3169.25 3984.08,3165.42 3972.5,3158C 3967.96,3154.96 3964.29,3151.12 3961.5,3146.5C 3976.66,3156.43 3993.33,3159.93 4011.5,3157C 4015.72,3155.89 4019.72,3154.22 4023.5,3152C 4031.47,3147.89 4035.14,3141.39 4034.5,3132.5 Z"/></g>
<g><path style="opacity:1" fill="#9fe6f2" d="M 4565.5,3133.5 C 4577.87,3137.58 4580.7,3145.24 4574,3156.5C 4565.36,3166.23 4554.53,3170.57 4541.5,3169.5C 4522.78,3169.55 4506.94,3162.89 4494,3149.5C 4493.54,3148.91 4493.37,3148.24 4493.5,3147.5C 4508.57,3156.61 4524.91,3159.78 4542.5,3157C 4546.72,3155.89 4550.72,3154.22 4554.5,3152C 4561.67,3147.82 4565.33,3141.66 4565.5,3133.5 Z"/></g>
<g><path style="opacity:1" fill="#9ee6f2" d="M 2173.5,3135.5 C 2185.58,3142.35 2188.41,3152.02 2182,3164.5C 2177.09,3170.08 2171.59,3174.91 2165.5,3179C 2141.34,3190.1 2116.01,3194.76 2089.5,3193C 2060.65,3188.91 2036.32,3176.41 2016.5,3155.5C 2052.4,3181.98 2091.74,3188.48 2134.5,3175C 2150.27,3171.71 2162.77,3163.54 2172,3150.5C 2174.47,3145.66 2174.97,3140.66 2173.5,3135.5 Z"/></g>
<g><path style="opacity:1" fill="#9ee6f2" d="M 2984.5,3151.5 C 2977.58,3156.57 2970.25,3161.07 2962.5,3165C 2942.51,3173.24 2925.85,3169.07 2912.5,3152.5C 2922.38,3157.46 2932.72,3158.63 2943.5,3156C 2954.56,3152.31 2964.56,3146.81 2973.5,3139.5C 2976.72,3143.95 2980.38,3147.95 2984.5,3151.5 Z"/></g>
</svg>
